<svg width="53" height="29" viewBox="0 0 53 29" fill="none" xmlns="http://www.w3.org/2000/svg">
<rect x="0.750488" y="0.25" width="52" height="28" rx="1.75" stroke="#F2F4F7" stroke-width="0.5"/>
<path d="M7.31299 11.6667C7.31299 10.9533 7.85398 10.375 8.52132 10.375H16.9797C17.647 10.375 18.188 10.9533 18.188 11.6667V16.8333C18.188 17.5467 17.647 18.125 16.9797 18.125H8.52132C7.85398 18.125 7.31299 17.5467 7.31299 16.8333V11.6667Z" fill="#211D1D" fill-opacity="0.4"/>
<path d="M9.12549 15.8125C8.91838 15.8125 8.75049 15.9804 8.75049 16.1875C8.75049 16.3946 8.91838 16.5625 9.12549 16.5625V15.8125ZM11.2401 16.5625C11.4472 16.5625 11.6151 16.3946 11.6151 16.1875C11.6151 15.9804 11.4472 15.8125 11.2401 15.8125V16.5625ZM8.52132 10.75H16.9797V10H8.52132V10.75ZM17.813 11.6667V16.8333H18.563V11.6667H17.813ZM16.9797 17.75H8.52132V18.5H16.9797V17.75ZM7.68799 16.8333V11.6667H6.93799V16.8333H7.68799ZM8.52132 17.75C8.08425 17.75 7.68799 17.3635 7.68799 16.8333H6.93799C6.93799 17.7299 7.62371 18.5 8.52132 18.5V17.75ZM17.813 16.8333C17.813 17.3635 17.4167 17.75 16.9797 17.75V18.5C17.8773 18.5 18.563 17.7299 18.563 16.8333H17.813ZM16.9797 10.75C17.4167 10.75 17.813 11.1365 17.813 11.6667H18.563C18.563 10.7701 17.8773 10 16.9797 10V10.75ZM8.52132 10C7.62371 10 6.93799 10.7701 6.93799 11.6667H7.68799C7.68799 11.1365 8.08425 10.75 8.52132 10.75V10ZM7.31299 13.3333H18.188V12.5833H7.31299V13.3333ZM9.12549 16.5625H11.2401V15.8125H9.12549V16.5625Z" fill="white"/>
<path d="M30.1301 13.0692H29.2991C29.2672 12.8917 29.2077 12.7354 29.1207 12.6005C29.0337 12.4656 28.9272 12.351 28.8011 12.2569C28.675 12.1628 28.5339 12.0918 28.3776 12.0439C28.2231 11.9959 28.0589 11.9719 27.8849 11.9719C27.5706 11.9719 27.2892 12.051 27.0406 12.209C26.7938 12.367 26.5985 12.5987 26.4547 12.9041C26.3126 13.2095 26.2416 13.5824 26.2416 14.0227C26.2416 14.4666 26.3126 14.8413 26.4547 15.1467C26.5985 15.4521 26.7947 15.6829 27.0433 15.8391C27.2919 15.9954 27.5715 16.0735 27.8822 16.0735C28.0545 16.0735 28.2178 16.0504 28.3723 16.0043C28.5285 15.9563 28.6697 15.8862 28.7958 15.7939C28.9218 15.7015 29.0284 15.5888 29.1154 15.4556C29.2041 15.3207 29.2654 15.1662 29.2991 14.9922L30.1301 14.9949C30.0857 15.263 29.9996 15.5098 29.8718 15.7353C29.7457 15.959 29.5832 16.1525 29.3844 16.3159C29.1873 16.4775 28.9618 16.6026 28.7079 16.6914C28.454 16.7802 28.177 16.8246 27.8769 16.8246C27.4046 16.8246 26.9838 16.7127 26.6145 16.489C26.2452 16.2635 25.954 15.9412 25.7409 15.5222C25.5296 15.1032 25.424 14.6033 25.424 14.0227C25.424 13.4403 25.5305 12.9405 25.7436 12.5233C25.9566 12.1042 26.2478 11.7828 26.6171 11.5591C26.9865 11.3336 27.4064 11.2209 27.8769 11.2209C28.1663 11.2209 28.4362 11.2626 28.6866 11.3461C28.9387 11.4277 29.1651 11.5485 29.3657 11.7083C29.5664 11.8663 29.7324 12.0598 29.8638 12.2889C29.9952 12.5162 30.0839 12.7763 30.1301 13.0692ZM31.051 16.75V12.6591H31.8207V13.3089H31.8633C31.9379 13.0888 32.0692 12.9157 32.2575 12.7896C32.4474 12.6618 32.6623 12.5978 32.902 12.5978C32.9517 12.5978 33.0103 12.5996 33.0778 12.6032C33.147 12.6067 33.2012 12.6112 33.2402 12.6165V13.3782C33.2083 13.3693 33.1515 13.3596 33.0698 13.3489C32.9881 13.3365 32.9064 13.3303 32.8248 13.3303C32.6365 13.3303 32.4688 13.3702 32.3214 13.4501C32.1758 13.5282 32.0604 13.6374 31.9751 13.7777C31.8899 13.9162 31.8473 14.0742 31.8473 14.2518V16.75H31.051ZM35.546 16.8326C35.143 16.8326 34.7959 16.7464 34.5047 16.5742C34.2152 16.4002 33.9915 16.1561 33.8335 15.8418C33.6772 15.5257 33.5991 15.1555 33.5991 14.7312C33.5991 14.3121 33.6772 13.9428 33.8335 13.6232C33.9915 13.3036 34.2117 13.0542 34.494 12.8748C34.7781 12.6955 35.1101 12.6058 35.4901 12.6058C35.7209 12.6058 35.9446 12.644 36.1613 12.7203C36.3779 12.7967 36.5723 12.9165 36.7445 13.0799C36.9168 13.2433 37.0526 13.4554 37.152 13.7164C37.2515 13.9757 37.3012 14.2908 37.3012 14.6619V14.9442H34.0492V14.3477H36.5208C36.5208 14.1381 36.4782 13.9526 36.393 13.791C36.3078 13.6277 36.1879 13.4989 36.0334 13.4048C35.8807 13.3107 35.7014 13.2637 35.4954 13.2637C35.2717 13.2637 35.0764 13.3187 34.9095 13.4288C34.7444 13.5371 34.6165 13.6792 34.526 13.8549C34.4372 14.0289 34.3928 14.218 34.3928 14.4222V14.8883C34.3928 15.1618 34.4407 15.3944 34.5366 15.5861C34.6343 15.7779 34.7701 15.9244 34.9441 16.0256C35.1181 16.125 35.3214 16.1747 35.554 16.1747C35.7049 16.1747 35.8426 16.1534 35.9668 16.1108C36.0911 16.0664 36.1986 16.0007 36.2891 15.9137C36.3797 15.8267 36.4489 15.7193 36.4968 15.5914L37.2506 15.7273C37.1902 15.9492 37.0819 16.1436 36.9256 16.3105C36.7712 16.4757 36.5767 16.6044 36.3424 16.6967C36.1098 16.7873 35.8443 16.8326 35.546 16.8326ZM39.7162 16.8299C39.3859 16.8299 39.0912 16.7456 38.8319 16.5769C38.5745 16.4064 38.3721 16.1641 38.2247 15.8498C38.0791 15.5337 38.0063 15.1547 38.0063 14.7125C38.0063 14.2704 38.08 13.8922 38.2274 13.5779C38.3765 13.2637 38.5807 13.0231 38.8399 12.8562C39.0992 12.6893 39.393 12.6058 39.7215 12.6058C39.9754 12.6058 40.1796 12.6484 40.3341 12.7337C40.4903 12.8171 40.6111 12.9148 40.6963 13.0266C40.7833 13.1385 40.8508 13.237 40.8987 13.3223H40.9466V11.2955H41.743V16.75H40.9653V16.1135H40.8987C40.8508 16.2005 40.7815 16.2999 40.691 16.4118C40.6022 16.5236 40.4797 16.6213 40.3234 16.7047C40.1672 16.7882 39.9648 16.8299 39.7162 16.8299ZM39.892 16.1507C40.121 16.1507 40.3145 16.0904 40.4726 15.9696C40.6324 15.8471 40.7531 15.6776 40.8348 15.4609C40.9182 15.2443 40.96 14.9922 40.96 14.7045C40.96 14.4205 40.9191 14.1719 40.8374 13.9588C40.7558 13.7457 40.6359 13.5797 40.4779 13.4608C40.3199 13.3418 40.1246 13.2823 39.892 13.2823C39.6523 13.2823 39.4525 13.3445 39.2927 13.4688C39.1329 13.593 39.0122 13.7626 38.9305 13.9775C38.8506 14.1923 38.8106 14.4347 38.8106 14.7045C38.8106 14.978 38.8515 15.2239 38.9331 15.4423C39.0148 15.6607 39.1356 15.8338 39.2954 15.9616C39.4569 16.0877 39.6558 16.1507 39.892 16.1507ZM42.8796 16.75V12.6591H43.6759V16.75H42.8796ZM43.2817 12.0279C43.1432 12.0279 43.0243 11.9817 42.9248 11.8894C42.8272 11.7953 42.7784 11.6834 42.7784 11.5538C42.7784 11.4224 42.8272 11.3105 42.9248 11.2182C43.0243 11.1241 43.1432 11.0771 43.2817 11.0771C43.4202 11.0771 43.5383 11.1241 43.636 11.2182C43.7354 11.3105 43.7851 11.4224 43.7851 11.5538C43.7851 11.6834 43.7354 11.7953 43.636 11.8894C43.5383 11.9817 43.4202 12.0279 43.2817 12.0279ZM46.6569 12.6591V13.2983H44.4223V12.6591H46.6569ZM45.0216 11.679H45.8179V15.5488C45.8179 15.7033 45.841 15.8196 45.8872 15.8977C45.9333 15.9741 45.9928 16.0265 46.0656 16.0549C46.1402 16.0815 46.221 16.0948 46.308 16.0948C46.3719 16.0948 46.4278 16.0904 46.4758 16.0815C46.5237 16.0726 46.561 16.0655 46.5876 16.0602L46.7314 16.718C46.6853 16.7358 46.6196 16.7536 46.5344 16.7713C46.4491 16.7908 46.3426 16.8015 46.2148 16.8033C46.0052 16.8068 45.8099 16.7695 45.6288 16.6914C45.4477 16.6133 45.3012 16.4925 45.1894 16.3292C45.0775 16.1658 45.0216 15.9608 45.0216 15.714V11.679Z" fill="#667085"/>
</svg>
