<svg width="50" height="29" viewBox="0 0 50 29" fill="none" xmlns="http://www.w3.org/2000/svg">
<rect x="0.75" y="0.25" width="49" height="28" rx="1.75" stroke="#F2F4F7" stroke-width="0.5"/>
<path d="M7.3125 11.6667C7.3125 10.9533 7.85349 10.375 8.52083 10.375H16.9792C17.6465 10.375 18.1875 10.9533 18.1875 11.6667V16.8333C18.1875 17.5467 17.6465 18.125 16.9792 18.125H8.52083C7.85349 18.125 7.3125 17.5467 7.3125 16.8333V11.6667Z" fill="#211D1D" fill-opacity="0.4"/>
<path d="M9.125 15.8125C8.91789 15.8125 8.75 15.9804 8.75 16.1875C8.75 16.3946 8.91789 16.5625 9.125 16.5625V15.8125ZM11.2396 16.5625C11.4467 16.5625 11.6146 16.3946 11.6146 16.1875C11.6146 15.9804 11.4467 15.8125 11.2396 15.8125V16.5625ZM8.52083 10.75H16.9792V10H8.52083V10.75ZM17.8125 11.6667V16.8333H18.5625V11.6667H17.8125ZM16.9792 17.75H8.52083V18.5H16.9792V17.75ZM7.6875 16.8333V11.6667H6.9375V16.8333H7.6875ZM8.52083 17.75C8.08376 17.75 7.6875 17.3635 7.6875 16.8333H6.9375C6.9375 17.7299 7.62322 18.5 8.52083 18.5V17.75ZM17.8125 16.8333C17.8125 17.3635 17.4162 17.75 16.9792 17.75V18.5C17.8768 18.5 18.5625 17.7299 18.5625 16.8333H17.8125ZM16.9792 10.75C17.4162 10.75 17.8125 11.1365 17.8125 11.6667H18.5625C18.5625 10.7701 17.8768 10 16.9792 10V10.75ZM8.52083 10C7.62322 10 6.9375 10.7701 6.9375 11.6667H7.6875C7.6875 11.1365 8.08376 10.75 8.52083 10.75V10ZM7.3125 13.3333H18.1875V12.5833H7.3125V13.3333ZM9.125 16.5625H11.2396V15.8125H9.125V16.5625Z" fill="white"/>
<path d="M27.3651 16.75H25.5993V11.2955H27.421C27.9554 11.2955 28.4144 11.4047 28.7979 11.623C29.1815 11.8397 29.4753 12.1513 29.6795 12.5579C29.8855 12.9627 29.9885 13.4483 29.9885 14.0147C29.9885 14.5829 29.8846 15.0712 29.6768 15.4796C29.4709 15.888 29.1726 16.2022 28.782 16.4224C28.3913 16.6408 27.919 16.75 27.3651 16.75ZM26.4222 16.0309H27.3198C27.7353 16.0309 28.0806 15.9528 28.3558 15.7965C28.631 15.6385 28.837 15.4103 28.9737 15.112C29.1104 14.812 29.1788 14.4462 29.1788 14.0147C29.1788 13.5868 29.1104 13.2237 28.9737 12.9254C28.8388 12.6271 28.6373 12.4007 28.3691 12.2463C28.101 12.0918 27.7681 12.0146 27.3704 12.0146H26.4222V16.0309ZM32.7111 16.8326C32.308 16.8326 31.9609 16.7464 31.6697 16.5742C31.3803 16.4002 31.1566 16.1561 30.9985 15.8418C30.8423 15.5257 30.7642 15.1555 30.7642 14.7312C30.7642 14.3121 30.8423 13.9428 30.9985 13.6232C31.1566 13.3036 31.3767 13.0542 31.659 12.8748C31.9431 12.6955 32.2752 12.6058 32.6551 12.6058C32.886 12.6058 33.1097 12.644 33.3263 12.7203C33.5429 12.7967 33.7373 12.9165 33.9096 13.0799C34.0818 13.2433 34.2176 13.4554 34.3171 13.7164C34.4165 13.9757 34.4662 14.2908 34.4662 14.6619V14.9442H31.2143V14.3477H33.6859C33.6859 14.1381 33.6432 13.9526 33.558 13.791C33.4728 13.6277 33.3529 13.4989 33.1985 13.4048C33.0458 13.3107 32.8664 13.2637 32.6605 13.2637C32.4367 13.2637 32.2414 13.3187 32.0745 13.4288C31.9094 13.5371 31.7816 13.6792 31.691 13.8549C31.6022 14.0289 31.5578 14.218 31.5578 14.4222V14.8883C31.5578 15.1618 31.6058 15.3944 31.7017 15.5861C31.7993 15.7779 31.9351 15.9244 32.1092 16.0256C32.2832 16.125 32.4865 16.1747 32.7191 16.1747C32.87 16.1747 33.0076 16.1534 33.1319 16.1108C33.2562 16.0664 33.3636 16.0007 33.4541 15.9137C33.5447 15.8267 33.6139 15.7193 33.6619 15.5914L34.4156 15.7273C34.3552 15.9492 34.2469 16.1436 34.0907 16.3105C33.9362 16.4757 33.7418 16.6044 33.5074 16.6967C33.2748 16.7873 33.0094 16.8326 32.7111 16.8326ZM35.4137 16.75V11.2955H36.21V13.3223H36.258C36.3042 13.237 36.3707 13.1385 36.4577 13.0266C36.5447 12.9148 36.6655 12.8171 36.82 12.7337C36.9744 12.6484 37.1786 12.6058 37.4325 12.6058C37.7628 12.6058 38.0575 12.6893 38.3168 12.8562C38.576 13.0231 38.7793 13.2637 38.9267 13.5779C39.0758 13.8922 39.1504 14.2704 39.1504 14.7125C39.1504 15.1547 39.0767 15.5337 38.9293 15.8498C38.782 16.1641 38.5795 16.4064 38.3221 16.5769C38.0646 16.7456 37.7708 16.8299 37.4405 16.8299C37.1919 16.8299 36.9886 16.7882 36.8306 16.7047C36.6744 16.6213 36.5518 16.5236 36.4631 16.4118C36.3743 16.2999 36.3059 16.2005 36.258 16.1135H36.1914V16.75H35.4137ZM36.1941 14.7045C36.1941 14.9922 36.2358 15.2443 36.3192 15.4609C36.4027 15.6776 36.5234 15.8471 36.6815 15.9696C36.8395 16.0904 37.033 16.1507 37.2621 16.1507C37.5 16.1507 37.6989 16.0877 37.8587 15.9616C38.0185 15.8338 38.1392 15.6607 38.2209 15.4423C38.3043 15.2239 38.3461 14.978 38.3461 14.7045C38.3461 14.4347 38.3052 14.1923 38.2235 13.9775C38.1436 13.7626 38.0229 13.593 37.8613 13.4688C37.7015 13.3445 37.5018 13.2823 37.2621 13.2823C37.0312 13.2823 36.8359 13.3418 36.6761 13.4608C36.5181 13.5797 36.3983 13.7457 36.3166 13.9588C36.2349 14.1719 36.1941 14.4205 36.1941 14.7045ZM40.0446 16.75V12.6591H40.841V16.75H40.0446ZM40.4468 12.0279C40.3083 12.0279 40.1893 11.9817 40.0899 11.8894C39.9922 11.7953 39.9434 11.6834 39.9434 11.5538C39.9434 11.4224 39.9922 11.3105 40.0899 11.2182C40.1893 11.1241 40.3083 11.0771 40.4468 11.0771C40.5853 11.0771 40.7033 11.1241 40.801 11.2182C40.9004 11.3105 40.9502 11.4224 40.9502 11.5538C40.9502 11.6834 40.9004 11.7953 40.801 11.8894C40.7033 11.9817 40.5853 12.0279 40.4468 12.0279ZM43.8219 12.6591V13.2983H41.5874V12.6591H43.8219ZM42.1866 11.679H42.983V15.5488C42.983 15.7033 43.006 15.8196 43.0522 15.8977C43.0984 15.9741 43.1578 16.0265 43.2306 16.0549C43.3052 16.0815 43.386 16.0948 43.473 16.0948C43.5369 16.0948 43.5929 16.0904 43.6408 16.0815C43.6887 16.0726 43.726 16.0655 43.7527 16.0602L43.8965 16.718C43.8503 16.7358 43.7846 16.7536 43.6994 16.7713C43.6142 16.7908 43.5076 16.8015 43.3798 16.8033C43.1703 16.8068 42.975 16.7695 42.7939 16.6914C42.6127 16.6133 42.4663 16.4925 42.3544 16.3292C42.2425 16.1658 42.1866 15.9608 42.1866 15.714V11.679Z" fill="#667085"/>
</svg>
