<svg width="50" height="29" viewBox="0 0 50 29" fill="none" xmlns="http://www.w3.org/2000/svg">
<rect x="0.250488" y="0.25" width="49" height="28" rx="1.75" stroke="#F2F4F7" stroke-width="0.5"/>
<path d="M6.81299 11.6667C6.81299 10.9533 7.35398 10.375 8.02132 10.375H16.4797C17.147 10.375 17.688 10.9533 17.688 11.6667V16.8333C17.688 17.5467 17.147 18.125 16.4797 18.125H8.02132C7.35398 18.125 6.81299 17.5467 6.81299 16.8333V11.6667Z" fill="#211D1D" fill-opacity="0.4"/>
<path d="M8.62549 15.8125C8.41838 15.8125 8.25049 15.9804 8.25049 16.1875C8.25049 16.3946 8.41838 16.5625 8.62549 16.5625V15.8125ZM10.7401 16.5625C10.9472 16.5625 11.1151 16.3946 11.1151 16.1875C11.1151 15.9804 10.9472 15.8125 10.7401 15.8125V16.5625ZM8.02132 10.75H16.4797V10H8.02132V10.75ZM17.313 11.6667V16.8333H18.063V11.6667H17.313ZM16.4797 17.75H8.02132V18.5H16.4797V17.75ZM7.18799 16.8333V11.6667H6.43799V16.8333H7.18799ZM8.02132 17.75C7.58425 17.75 7.18799 17.3635 7.18799 16.8333H6.43799C6.43799 17.7299 7.12371 18.5 8.02132 18.5V17.75ZM17.313 16.8333C17.313 17.3635 16.9167 17.75 16.4797 17.75V18.5C17.3773 18.5 18.063 17.7299 18.063 16.8333H17.313ZM16.4797 10.75C16.9167 10.75 17.313 11.1365 17.313 11.6667H18.063C18.063 10.7701 17.3773 10 16.4797 10V10.75ZM8.02132 10C7.12371 10 6.43799 10.7701 6.43799 11.6667H7.18799C7.18799 11.1365 7.58425 10.75 8.02132 10.75V10ZM6.81299 13.3333H17.688V12.5833H6.81299V13.3333ZM8.62549 16.5625H10.7401V15.8125H8.62549V16.5625Z" fill="white"/>
<path d="M26.8655 16.75H25.0997V11.2955H26.9215C27.4559 11.2955 27.9149 11.4047 28.2984 11.623C28.682 11.8397 28.9758 12.1513 29.18 12.5579C29.386 12.9627 29.4889 13.4483 29.4889 14.0147C29.4889 14.5829 29.3851 15.0712 29.1773 15.4796C28.9714 15.888 28.6731 16.2022 28.2824 16.4224C27.8918 16.6408 27.4195 16.75 26.8655 16.75ZM25.9227 16.0309H26.8203C27.2358 16.0309 27.5811 15.9528 27.8563 15.7965C28.1315 15.6385 28.3375 15.4103 28.4742 15.112C28.6109 14.812 28.6793 14.4462 28.6793 14.0147C28.6793 13.5868 28.6109 13.2237 28.4742 12.9254C28.3393 12.6271 28.1377 12.4007 27.8696 12.2463C27.6015 12.0918 27.2686 12.0146 26.8709 12.0146H25.9227V16.0309ZM32.2116 16.8326C31.8085 16.8326 31.4614 16.7464 31.1702 16.5742C30.8808 16.4002 30.657 16.1561 30.499 15.8418C30.3428 15.5257 30.2646 15.1555 30.2646 14.7312C30.2646 14.3121 30.3428 13.9428 30.499 13.6232C30.657 13.3036 30.8772 13.0542 31.1595 12.8748C31.4436 12.6955 31.7757 12.6058 32.1556 12.6058C32.3865 12.6058 32.6102 12.644 32.8268 12.7203C33.0434 12.7967 33.2378 12.9165 33.4101 13.0799C33.5823 13.2433 33.7181 13.4554 33.8176 13.7164C33.917 13.9757 33.9667 14.2908 33.9667 14.6619V14.9442H30.7148V14.3477H33.1863C33.1863 14.1381 33.1437 13.9526 33.0585 13.791C32.9733 13.6277 32.8534 13.4989 32.699 13.4048C32.5463 13.3107 32.3669 13.2637 32.161 13.2637C31.9372 13.2637 31.7419 13.3187 31.575 13.4288C31.4099 13.5371 31.282 13.6792 31.1915 13.8549C31.1027 14.0289 31.0583 14.218 31.0583 14.4222V14.8883C31.0583 15.1618 31.1063 15.3944 31.2021 15.5861C31.2998 15.7779 31.4356 15.9244 31.6096 16.0256C31.7836 16.125 31.9869 16.1747 32.2195 16.1747C32.3705 16.1747 32.5081 16.1534 32.6324 16.1108C32.7567 16.0664 32.8641 16.0007 32.9546 15.9137C33.0452 15.8267 33.1144 15.7193 33.1624 15.5914L33.9161 15.7273C33.8557 15.9492 33.7474 16.1436 33.5912 16.3105C33.4367 16.4757 33.2423 16.6044 33.0079 16.6967C32.7753 16.7873 32.5099 16.8326 32.2116 16.8326ZM34.9142 16.75V11.2955H35.7105V13.3223H35.7585C35.8046 13.237 35.8712 13.1385 35.9582 13.0266C36.0452 12.9148 36.166 12.8171 36.3204 12.7337C36.4749 12.6484 36.6791 12.6058 36.933 12.6058C37.2633 12.6058 37.558 12.6893 37.8172 12.8562C38.0765 13.0231 38.2798 13.2637 38.4272 13.5779C38.5763 13.8922 38.6509 14.2704 38.6509 14.7125C38.6509 15.1547 38.5772 15.5337 38.4298 15.8498C38.2824 16.1641 38.08 16.4064 37.8226 16.5769C37.5651 16.7456 37.2713 16.8299 36.941 16.8299C36.6924 16.8299 36.4891 16.7882 36.3311 16.7047C36.1748 16.6213 36.0523 16.5236 35.9636 16.4118C35.8748 16.2999 35.8064 16.2005 35.7585 16.1135H35.6919V16.75H34.9142ZM35.6946 14.7045C35.6946 14.9922 35.7363 15.2443 35.8197 15.4609C35.9032 15.6776 36.0239 15.8471 36.182 15.9696C36.34 16.0904 36.5335 16.1507 36.7626 16.1507C37.0005 16.1507 37.1994 16.0877 37.3592 15.9616C37.519 15.8338 37.6397 15.6607 37.7214 15.4423C37.8048 15.2239 37.8465 14.978 37.8465 14.7045C37.8465 14.4347 37.8057 14.1923 37.724 13.9775C37.6441 13.7626 37.5234 13.593 37.3618 13.4688C37.202 13.3445 37.0023 13.2823 36.7626 13.2823C36.5317 13.2823 36.3364 13.3418 36.1766 13.4608C36.0186 13.5797 35.8987 13.7457 35.8171 13.9588C35.7354 14.1719 35.6946 14.4205 35.6946 14.7045ZM39.5451 16.75V12.6591H40.3414V16.75H39.5451ZM39.9473 12.0279C39.8088 12.0279 39.6898 11.9817 39.5904 11.8894C39.4927 11.7953 39.4439 11.6834 39.4439 11.5538C39.4439 11.4224 39.4927 11.3105 39.5904 11.2182C39.6898 11.1241 39.8088 11.0771 39.9473 11.0771C40.0858 11.0771 40.2038 11.1241 40.3015 11.2182C40.4009 11.3105 40.4506 11.4224 40.4506 11.5538C40.4506 11.6834 40.4009 11.7953 40.3015 11.8894C40.2038 11.9817 40.0858 12.0279 39.9473 12.0279ZM43.3224 12.6591V13.2983H41.0878V12.6591H43.3224ZM41.6871 11.679H42.4834V15.5488C42.4834 15.7033 42.5065 15.8196 42.5527 15.8977C42.5989 15.9741 42.6583 16.0265 42.7311 16.0549C42.8057 16.0815 42.8865 16.0948 42.9735 16.0948C43.0374 16.0948 43.0934 16.0904 43.1413 16.0815C43.1892 16.0726 43.2265 16.0655 43.2532 16.0602L43.397 16.718C43.3508 16.7358 43.2851 16.7536 43.1999 16.7713C43.1147 16.7908 43.0081 16.8015 42.8803 16.8033C42.6708 16.8068 42.4755 16.7695 42.2943 16.6914C42.1132 16.6133 41.9668 16.4925 41.8549 16.3292C41.743 16.1658 41.6871 15.9608 41.6871 15.714V11.679Z" fill="#667085"/>
</svg>
