<svg width="35" height="14" viewBox="0 0 35 14" fill="none" xmlns="http://www.w3.org/2000/svg">
<path d="M16.816 7.09623V11.0534H15.542V1.28093H18.9208C19.3241 1.27263 19.7251 1.34311 20.1006 1.48832C20.4761 1.63353 20.8187 1.85058 21.1087 2.12695C21.4016 2.38654 21.6346 2.7049 21.7923 3.06063C21.9499 3.41637 22.0285 3.80123 22.0226 4.18936C22.031 4.57956 21.9537 4.96694 21.7959 5.32494C21.6382 5.68294 21.4037 6.00309 21.1087 6.26346C20.5179 6.81864 19.7886 7.09596 18.9208 7.09545H16.816V7.09623ZM16.816 2.48407V5.89543H18.9524C19.1867 5.90227 19.4197 5.86086 19.6368 5.77386C19.8538 5.68685 20.0501 5.55617 20.2129 5.39016C20.375 5.23494 20.5037 5.04928 20.5917 4.84417C20.6796 4.63906 20.7249 4.41865 20.7249 4.19599C20.7249 3.97332 20.6796 3.75291 20.5917 3.5478C20.5037 3.34268 20.375 3.15703 20.2129 3.00181C20.0521 2.8323 19.8566 2.69842 19.6393 2.60902C19.4219 2.51963 19.1878 2.47677 18.9524 2.48329H16.816V2.48407Z" fill="#B1B1B1"/>
<path d="M24.9583 4.14844C25.9 4.14844 26.6432 4.39639 27.1882 4.89231C27.7331 5.38822 28.0053 6.06816 28.0048 6.93211V11.053H26.7862V10.1251H26.7308C26.2033 10.8893 25.5017 11.2714 24.626 11.2714C23.8785 11.2714 23.2531 11.053 22.7499 10.6164C22.5083 10.416 22.3153 10.165 22.1847 9.8817C22.0541 9.59842 21.9893 9.29001 21.995 8.97892C21.995 8.28703 22.2603 7.7368 22.791 7.32821C23.3217 6.91963 24.0302 6.71482 24.9164 6.71378C25.6729 6.71378 26.2959 6.85023 26.7854 7.12314V6.8362C26.7869 6.62412 26.7404 6.41439 26.6494 6.2222C26.5584 6.03002 26.4251 5.8602 26.2592 5.72507C25.9223 5.42556 25.4833 5.26213 25.0296 5.26736C24.3179 5.26736 23.7548 5.56314 23.3402 6.15471L22.2181 5.4584C22.8353 4.58509 23.7487 4.14844 24.9583 4.14844ZM23.3101 9.00621C23.3092 9.16598 23.3471 9.32364 23.4206 9.46605C23.4941 9.60847 23.6011 9.73151 23.7326 9.82494C24.0144 10.0433 24.3641 10.159 24.7225 10.1524C25.2601 10.1515 25.7754 9.94069 26.1556 9.56607C26.5776 9.17464 26.7886 8.71537 26.7886 8.18827C26.3914 7.87637 25.8375 7.72042 25.1269 7.72042C24.6094 7.72042 24.1779 7.84336 23.8323 8.08924C23.4834 8.33876 23.3101 8.64207 23.3101 9.00621Z" fill="#B1B1B1"/>
<path d="M35 4.36621L30.7461 13.9999H29.431L31.0096 10.6291L28.2124 4.36621H29.5972L31.6189 9.1694H31.6466L33.6129 4.36621H35Z" fill="#B1B1B1"/>
<path d="M11.6682 6.2431C11.6687 5.86052 11.6359 5.47861 11.5701 5.10156H6.19727V7.26378H9.27457C9.2116 7.60912 9.07832 7.93831 8.88276 8.23152C8.6872 8.52474 8.43342 8.77589 8.1367 8.96985V10.3734H9.97327C11.0486 9.39637 11.6682 7.95151 11.6682 6.2431Z" fill="#4285F4"/>
<path d="M6.19727 11.7291C7.73474 11.7291 9.02928 11.2316 9.97328 10.3739L8.13671 8.97038C7.62554 9.3119 6.96719 9.50684 6.19727 9.50684C4.71124 9.50684 3.44993 8.51969 2.9989 7.18945H1.10693V8.63587C1.58112 9.56569 2.30824 10.3473 3.20712 10.8936C4.10599 11.4398 5.14123 11.729 6.19727 11.7291Z" fill="#34A853"/>
<path d="M2.99862 7.18913C2.76017 6.49208 2.76017 5.73722 2.99862 5.04017V3.59375H1.10666C0.70775 4.37595 0.5 5.23923 0.5 6.11465C0.5 6.99006 0.70775 7.85335 1.10666 8.63554L2.99862 7.18913Z" fill="#FBBC04"/>
<path d="M6.19727 2.72263C7.00975 2.70954 7.79483 3.01205 8.3828 3.56474L10.0089 1.96238C8.97778 1.00804 7.61179 0.484088 6.19727 0.500368C5.14123 0.500416 4.10599 0.789694 3.20712 1.33591C2.30824 1.88212 1.58112 2.66377 1.10693 3.59359L2.9989 5.04001C3.44993 3.70977 4.71124 2.72263 6.19727 2.72263Z" fill="#EA4335"/>
</svg>
