<svg width="39" height="11" viewBox="0 0 39 11" fill="none" xmlns="http://www.w3.org/2000/svg">
<path d="M6.51694 0.735231C6.03437 0.412005 5.40466 0.25 4.62782 0.25H1.62027C1.38212 0.25 1.25055 0.366045 1.22556 0.597913L0.00383497 8.07007C-0.00886259 8.14346 0.0099826 8.21058 0.0601983 8.2716C0.110127 8.33272 0.172925 8.36312 0.248134 8.36312H1.6767C1.92726 8.36312 2.06498 8.24736 2.09026 8.01521L2.42855 6.00073C2.4409 5.9031 2.48497 5.82372 2.56018 5.76259C2.63533 5.70157 2.72933 5.66166 2.84211 5.64341C2.9549 5.62527 3.06125 5.61609 3.16168 5.61609C3.26182 5.61609 3.38081 5.62231 3.51888 5.63445C3.6566 5.6466 3.74439 5.65259 3.78202 5.65259C4.85965 5.65259 5.7055 5.35674 6.31964 4.76436C6.93349 4.17232 7.24075 3.35133 7.24075 2.30104C7.24075 1.58069 6.99927 1.05879 6.51694 0.735063V0.735231ZM4.96628 2.97889C4.90343 3.4063 4.74071 3.68698 4.47757 3.82133C4.21437 3.95585 3.83844 4.0228 3.34979 4.0228L2.72944 4.04105L3.04907 2.08137C3.074 1.94719 3.15542 1.88001 3.29337 1.88001H3.65062C4.15163 1.88001 4.51526 1.95038 4.74083 2.09055C4.96628 2.23106 5.04149 2.52725 4.96628 2.97889Z" fill="#0041B8"/>
<path d="M38.2553 0.25H36.8645C36.7263 0.25 36.6449 0.317176 36.6201 0.451583L35.3982 8.07041L35.3794 8.10702C35.3794 8.16837 35.4044 8.22609 35.4547 8.28106C35.5045 8.33592 35.5675 8.3634 35.6426 8.3634H36.8834C37.1211 8.3634 37.2527 8.24764 37.2782 8.01549L38.4999 0.52486V0.506667C38.4998 0.335649 38.4181 0.250225 38.2553 0.250225V0.25Z" fill="#009CDE"/>
<path d="M21.4514 3.19877C21.4514 3.13786 21.4262 3.07976 21.3764 3.02495C21.3261 2.97004 21.2697 2.94238 21.2072 2.94238H19.7599C19.6217 2.94238 19.5089 3.00374 19.4214 3.12549L17.429 5.98263L16.6019 3.23549C16.5389 3.04029 16.4012 2.94238 16.1884 2.94238H14.7784C14.7156 2.94238 14.6592 2.96993 14.6094 3.02495C14.5591 3.07976 14.5342 3.13798 14.5342 3.19877C14.5342 3.22334 14.6564 3.5834 14.9007 4.27934C15.145 4.97551 15.4081 5.72642 15.6901 6.5323C15.9721 7.33801 16.1193 7.76558 16.1318 7.81401C15.1042 9.1817 14.5906 9.91425 14.5906 10.0118C14.5906 10.1706 14.6719 10.2499 14.835 10.2499H16.2823C16.4201 10.2499 16.5328 10.189 16.6207 10.0669L21.4141 3.32691C21.4389 3.30272 21.4514 3.26018 21.4514 3.19871V3.19877Z" fill="#0041B8"/>
<path d="M34.9292 2.94265H33.5006C33.325 2.94265 33.2188 3.14417 33.1812 3.54717C32.855 3.05892 32.2602 2.81445 31.3953 2.81445C30.4931 2.81445 29.7254 3.14417 29.0928 3.80351C28.4598 4.46284 28.1436 5.23838 28.1436 6.12958C28.1436 6.8501 28.3597 7.42389 28.7919 7.85107C29.2243 8.2787 29.8038 8.4921 30.5308 8.4921C30.8942 8.4921 31.2638 8.41871 31.6398 8.27232C32.0157 8.12582 32.3099 7.93056 32.5234 7.68627C32.5234 7.69853 32.5105 7.75328 32.4858 7.85091C32.4604 7.94876 32.4481 8.02226 32.4481 8.07068C32.4481 8.26628 32.5293 8.36368 32.6925 8.36368H33.9896C34.2274 8.36368 34.3654 8.24791 34.4029 8.01577L35.1737 3.23565C35.186 3.16231 35.1673 3.0953 35.1172 3.03417C35.0669 2.97327 35.0044 2.94265 34.9292 2.94265ZM32.4762 6.55077C32.1567 6.85603 31.7713 7.00857 31.3202 7.00857C30.9566 7.00857 30.6624 6.91106 30.4367 6.71558C30.211 6.52066 30.0983 6.25201 30.0983 5.90975C30.0983 5.45832 30.2549 5.07643 30.5684 4.76513C30.8812 4.45377 31.27 4.29814 31.7337 4.29814C32.0843 4.29814 32.3757 4.39885 32.6078 4.60021C32.8394 4.80174 32.9556 5.07951 32.9556 5.43369C32.9555 5.87319 32.7957 6.24568 32.4762 6.55077Z" fill="#009CDE"/>
<path d="M13.5749 2.94265H12.1463C11.9706 2.94265 11.8643 3.14417 11.8267 3.54717C11.4883 3.05892 10.893 2.81445 10.0409 2.81445C9.13867 2.81445 8.37102 3.14417 7.73827 3.80351C7.10535 4.46284 6.78906 5.23838 6.78906 6.12958C6.78906 6.8501 7.00526 7.42389 7.43761 7.85107C7.86996 8.2787 8.44939 8.4921 9.1763 8.4921C9.52701 8.4921 9.89064 8.41871 10.2665 8.27232C10.6424 8.12582 10.9432 7.93056 11.1688 7.68627C11.1185 7.83266 11.0936 7.96091 11.0936 8.07068C11.0936 8.26628 11.175 8.36368 11.3379 8.36368H12.6349C12.8728 8.36368 13.0108 8.24791 13.0485 8.01577L13.8191 3.23565C13.8315 3.16231 13.8127 3.0953 13.7627 3.03417C13.7126 2.97327 13.65 2.94265 13.5749 2.94265ZM11.1219 6.55984C10.8023 6.85933 10.4105 7.00857 9.94711 7.00857C9.58348 7.00857 9.29213 6.91106 9.073 6.71558C8.85358 6.52066 8.74401 6.25201 8.74401 5.90975C8.74401 5.45832 8.90058 5.07643 9.21399 4.76513C9.52706 4.45377 9.91557 4.29809 10.3794 4.29809C10.7301 4.29809 11.0215 4.39885 11.2535 4.60021C11.4852 4.80174 11.6012 5.07951 11.6012 5.43369C11.6012 5.88545 11.4415 6.26102 11.1219 6.55984Z" fill="#0041B8"/>
<path d="M27.8705 0.735231C27.388 0.412005 26.7585 0.25 25.9815 0.25H22.9927C22.742 0.25 22.6041 0.366045 22.5792 0.597913L21.3574 8.07007C21.3447 8.14346 21.3635 8.21058 21.4138 8.2716C21.4635 8.33272 21.5264 8.36312 21.6016 8.36312H23.1429C23.2933 8.36312 23.3935 8.28385 23.4438 8.1251L23.7821 6.00073C23.7946 5.9031 23.8384 5.82372 23.9137 5.76259C23.989 5.70157 24.0828 5.66166 24.1957 5.64341C24.3084 5.62527 24.4148 5.61609 24.5152 5.61609C24.6154 5.61609 24.7344 5.62231 24.8723 5.63445C25.0101 5.6466 25.0981 5.65259 25.1355 5.65259C26.2133 5.65259 27.059 5.35674 27.6731 4.76436C28.2872 4.17232 28.5942 3.35133 28.5942 2.30104C28.5942 1.58069 28.3529 1.05874 27.8705 0.735063V0.735231ZM25.9439 3.748C25.6682 3.93111 25.2546 4.02263 24.7033 4.02263L24.1017 4.04099L24.4213 2.08126C24.4461 1.94713 24.5276 1.87985 24.6656 1.87985H25.0038C25.2796 1.87985 25.4988 1.89211 25.662 1.91646C25.8246 1.94098 25.9815 2.01716 26.1318 2.1453C26.2823 2.27355 26.3574 2.45985 26.3574 2.70392C26.3574 3.21692 26.2194 3.56472 25.9439 3.748Z" fill="#009CDE"/>
</svg>
