<svg width="39" height="11" viewBox="0 0 39 11" fill="none" xmlns="http://www.w3.org/2000/svg">
<path d="M7.01743 0.735231C6.53486 0.412005 5.90515 0.25 5.1283 0.25H2.12076C1.88261 0.25 1.75104 0.366045 1.72605 0.597913L0.504323 8.07007C0.491626 8.14346 0.510471 8.21058 0.560687 8.2716C0.610615 8.33272 0.673413 8.36312 0.748622 8.36312H2.17718C2.42775 8.36312 2.56546 8.24736 2.59074 8.01521L2.92904 6.00073C2.94139 5.9031 2.98546 5.82372 3.06067 5.76259C3.13582 5.70157 3.22982 5.66166 3.3426 5.64341C3.45539 5.62527 3.56173 5.61609 3.66217 5.61609C3.76231 5.61609 3.8813 5.62231 4.01936 5.63445C4.15708 5.6466 4.24488 5.65259 4.28251 5.65259C5.36013 5.65259 6.20599 5.35674 6.82012 4.76436C7.43397 4.17232 7.74124 3.35133 7.74124 2.30104C7.74124 1.58069 7.49976 1.05879 7.01743 0.735063V0.735231ZM5.46677 2.97889C5.40392 3.4063 5.2412 3.68698 4.97806 3.82133C4.71486 3.95585 4.33893 4.0228 3.85027 4.0228L3.22993 4.04105L3.54955 2.08137C3.57449 1.94719 3.6559 1.88001 3.79385 1.88001H4.15111C4.65212 1.88001 5.01575 1.95038 5.24132 2.09055C5.46677 2.23106 5.54198 2.52725 5.46677 2.97889Z" fill="#0041B8"/>
<path d="M38.7558 0.25H37.365C37.2267 0.25 37.1454 0.317176 37.1206 0.451583L35.8987 8.07041L35.8799 8.10702C35.8799 8.16837 35.9049 8.22609 35.9552 8.28106C36.005 8.33592 36.068 8.3634 36.1431 8.3634H37.3839C37.6216 8.3634 37.7532 8.24764 37.7787 8.01549L39.0004 0.52486V0.506667C39.0003 0.335649 38.9186 0.250225 38.7558 0.250225V0.25Z" fill="#009CDE"/>
<path d="M21.9514 3.19877C21.9514 3.13786 21.9262 3.07976 21.8764 3.02495C21.8261 2.97004 21.7697 2.94238 21.7072 2.94238H20.2599C20.1217 2.94238 20.0089 3.00374 19.9214 3.12549L17.929 5.98263L17.1019 3.23549C17.0389 3.04029 16.9012 2.94238 16.6884 2.94238H15.2784C15.2156 2.94238 15.1592 2.96993 15.1094 3.02495C15.0591 3.07976 15.0342 3.13798 15.0342 3.19877C15.0342 3.22334 15.1564 3.5834 15.4007 4.27934C15.645 4.97551 15.9081 5.72642 16.1901 6.5323C16.4721 7.33801 16.6193 7.76558 16.6318 7.81401C15.6042 9.1817 15.0906 9.91425 15.0906 10.0118C15.0906 10.1706 15.1719 10.2499 15.335 10.2499H16.7823C16.9201 10.2499 17.0328 10.189 17.1207 10.0669L21.9141 3.32691C21.9389 3.30272 21.9514 3.26018 21.9514 3.19871V3.19877Z" fill="#0041B8"/>
<path d="M35.4297 2.94265H34.0011C33.8254 2.94265 33.7193 3.14417 33.6817 3.54717C33.3555 3.05892 32.7606 2.81445 31.8958 2.81445C30.9936 2.81445 30.2259 3.14417 29.5932 3.80351C28.9603 4.46284 28.644 5.23838 28.644 6.12958C28.644 6.8501 28.8602 7.42389 29.2924 7.85107C29.7248 8.2787 30.3042 8.4921 31.0313 8.4921C31.3947 8.4921 31.7643 8.41871 32.1403 8.27232C32.5162 8.12582 32.8104 7.93056 33.0238 7.68627C33.0238 7.69853 33.011 7.75328 32.9863 7.85091C32.9609 7.94876 32.9486 8.02226 32.9486 8.07068C32.9486 8.26628 33.0298 8.36368 33.193 8.36368H34.4901C34.7279 8.36368 34.8659 8.24791 34.9033 8.01577L35.6742 3.23565C35.6865 3.16231 35.6678 3.0953 35.6177 3.03417C35.5673 2.97327 35.5048 2.94265 35.4297 2.94265ZM32.9767 6.55077C32.6572 6.85603 32.2718 7.00857 31.8207 7.00857C31.4571 7.00857 31.1629 6.91106 30.9372 6.71558C30.7115 6.52066 30.5988 6.25201 30.5988 5.90975C30.5988 5.45832 30.7554 5.07643 31.0688 4.76513C31.3817 4.45377 31.7705 4.29814 32.2342 4.29814C32.5848 4.29814 32.8762 4.39885 33.1082 4.60021C33.3398 4.80174 33.4561 5.07951 33.4561 5.43369C33.456 5.87319 33.2962 6.24568 32.9767 6.55077Z" fill="#009CDE"/>
<path d="M14.0754 2.94265H12.6468C12.4711 2.94265 12.3648 3.14417 12.3272 3.54717C11.9888 3.05892 11.3935 2.81445 10.5414 2.81445C9.63916 2.81445 8.87151 3.14417 8.23876 3.80351C7.60584 4.46284 7.28955 5.23838 7.28955 6.12958C7.28955 6.8501 7.50575 7.42389 7.9381 7.85107C8.37045 8.2787 8.94988 8.4921 9.67679 8.4921C10.0275 8.4921 10.3911 8.41871 10.767 8.27232C11.1429 8.12582 11.4437 7.93056 11.6693 7.68627C11.619 7.83266 11.5941 7.96091 11.5941 8.07068C11.5941 8.26628 11.6755 8.36368 11.8384 8.36368H13.1354C13.3733 8.36368 13.5113 8.24791 13.5489 8.01577L14.3196 3.23565C14.3319 3.16231 14.3132 3.0953 14.2632 3.03417C14.2131 2.97327 14.1505 2.94265 14.0754 2.94265ZM11.6224 6.55984C11.3028 6.85933 10.911 7.00857 10.4476 7.00857C10.084 7.00857 9.79262 6.91106 9.57349 6.71558C9.35407 6.52066 9.2445 6.25201 9.2445 5.90975C9.2445 5.45832 9.40107 5.07643 9.71448 4.76513C10.0276 4.45377 10.4161 4.29809 10.8799 4.29809C11.2306 4.29809 11.5219 4.39885 11.754 4.60021C11.9857 4.80174 12.1017 5.07951 12.1017 5.43369C12.1017 5.88545 11.9419 6.26102 11.6224 6.55984Z" fill="#0041B8"/>
<path d="M28.371 0.735231C27.8885 0.412005 27.259 0.25 26.482 0.25H23.4932C23.2425 0.25 23.1046 0.366045 23.0797 0.597913L21.8578 8.07007C21.8451 8.14346 21.864 8.21058 21.9143 8.2716C21.964 8.33272 22.0269 8.36312 22.1021 8.36312H23.6434C23.7938 8.36312 23.894 8.28385 23.9443 8.1251L24.2826 6.00073C24.2951 5.9031 24.3389 5.82372 24.4142 5.76259C24.4894 5.70157 24.5833 5.66166 24.6962 5.64341C24.8089 5.62527 24.9152 5.61609 25.0157 5.61609C25.1159 5.61609 25.2349 5.62231 25.3728 5.63445C25.5106 5.6466 25.5986 5.65259 25.636 5.65259C26.7138 5.65259 27.5595 5.35674 28.1736 4.76436C28.7877 4.17232 29.0947 3.35133 29.0947 2.30104C29.0947 1.58069 28.8534 1.05874 28.371 0.735063V0.735231ZM26.4444 3.748C26.1687 3.93111 25.7551 4.02263 25.2038 4.02263L24.6022 4.04099L24.9218 2.08126C24.9466 1.94713 25.0281 1.87985 25.1661 1.87985H25.5043C25.78 1.87985 25.9993 1.89211 26.1625 1.91646C26.3251 1.94098 26.482 2.01716 26.6323 2.1453C26.7828 2.27355 26.8579 2.45985 26.8579 2.70392C26.8579 3.21692 26.7199 3.56472 26.4444 3.748Z" fill="#009CDE"/>
</svg>
