<svg width="20" height="20" viewBox="0 0 20 20" fill="none" xmlns="http://www.w3.org/2000/svg">
<path d="M14 5C14 6.32608 13.4732 7.59785 12.5355 8.53553C11.5979 9.47322 10.3261 10 9 10C7.67392 10 6.40215 9.47322 5.46447 8.53553C4.52678 7.59785 4 6.32608 4 5C4 3.67392 4.52678 2.40215 5.46447 1.46447C6.40215 0.526784 7.67392 0 9 0C10.3261 0 11.5979 0.526784 12.5355 1.46447C13.4732 2.40215 14 3.67392 14 5ZM9 11C11.396 11 13.575 11.694 15.178 12.672C15.978 13.16 16.662 13.736 17.156 14.362C17.642 14.977 18 15.713 18 16.5C18 17.345 17.589 18.011 16.997 18.486C16.437 18.936 15.698 19.234 14.913 19.442C13.335 19.859 11.229 20 9 20C6.771 20 4.665 19.86 3.087 19.442C2.302 19.234 1.563 18.936 1.003 18.486C0.41 18.01 0 17.345 0 16.5C0 15.713 0.358 14.977 0.844 14.361C1.338 13.736 2.021 13.161 2.822 12.671C4.425 11.695 6.605 11 9 11ZM19 11C19.2549 11.0003 19.5 11.0979 19.6854 11.2728C19.8707 11.4478 19.9822 11.687 19.9972 11.9414C20.0121 12.1958 19.9293 12.4464 19.7657 12.6418C19.6021 12.8373 19.3701 12.9629 19.117 12.993L19 13H18C17.7451 12.9997 17.5 12.9021 17.3146 12.7272C17.1293 12.5522 17.0178 12.313 17.0028 12.0586C16.9879 11.8042 17.0707 11.5536 17.2343 11.3582C17.3979 11.1627 17.6299 11.0371 17.883 11.007L18 11H19ZM16 9C16 8.73478 16.1054 8.48043 16.2929 8.29289C16.4804 8.10536 16.7348 8 17 8H19C19.2652 8 19.5196 8.10536 19.7071 8.29289C19.8946 8.48043 20 8.73478 20 9C20 9.26522 19.8946 9.51957 19.7071 9.70711C19.5196 9.89464 19.2652 10 19 10H17C16.7348 10 16.4804 9.89464 16.2929 9.70711C16.1054 9.51957 16 9.26522 16 9ZM16 5C15.7348 5 15.4804 5.10536 15.2929 5.29289C15.1054 5.48043 15 5.73478 15 6C15 6.26522 15.1054 6.51957 15.2929 6.70711C15.4804 6.89464 15.7348 7 16 7H19C19.2652 7 19.5196 6.89464 19.7071 6.70711C19.8946 6.51957 20 6.26522 20 6C20 5.73478 19.8946 5.48043 19.7071 5.29289C19.5196 5.10536 19.2652 5 19 5H16Z" fill="white"/>
</svg>
