<svg width="20" height="20" viewBox="0 0 20 20" fill="none" xmlns="http://www.w3.org/2000/svg">
	<path d="M14.7874 13.3122L14.7874 13.3123C15.5298 13.7651 16.1403 14.2855 16.5672 14.8266L16.5676 14.827C16.993 15.3654 17.25 15.9413 17.25 16.5C17.25 17.0725 16.9806 17.5375 16.5276 17.901L16.5272 17.9014C16.0841 18.2574 15.46 18.5212 14.7214 18.7169C13.2404 19.1083 11.2138 19.25 9 19.25C6.78582 19.25 4.75967 19.1092 3.2791 18.717C2.54032 18.5213 1.91596 18.2575 1.47279 17.9014L1.47248 17.9011C1.01845 17.5367 0.75 17.0726 0.75 16.5C0.75 15.9414 1.00688 15.3655 1.43262 14.8258C1.85957 14.2857 2.469 13.7662 3.21266 13.3112C4.70024 12.4057 6.74539 11.75 9 11.75C11.2561 11.75 13.3003 12.4049 14.7874 13.3122ZM13.25 5C13.25 6.12717 12.8022 7.20817 12.0052 8.0052C11.2082 8.80223 10.1272 9.25 9 9.25C7.87283 9.25 6.79183 8.80223 5.9948 8.0052C5.19777 7.20817 4.75 6.12717 4.75 5C4.75 3.87283 5.19777 2.79183 5.9948 1.9948C6.79183 1.19777 7.87283 0.75 9 0.75C10.1272 0.75 11.2082 1.19777 12.0052 1.9948C12.8022 2.79183 13.25 3.87283 13.25 5ZM18.9992 11.75C19.0629 11.7501 19.1242 11.7745 19.1705 11.8182C19.2168 11.862 19.2447 11.9217 19.2485 11.9853C19.2522 12.049 19.2315 12.1116 19.1906 12.1605C19.1529 12.2056 19.1005 12.2358 19.0429 12.2461L18.9776 12.25H18.0008C17.9371 12.2499 17.8758 12.2255 17.8295 12.1818C17.7832 12.138 17.7553 12.0783 17.7515 12.0147C17.7478 11.951 17.7685 11.8884 17.8094 11.8395C17.8471 11.7944 17.8995 11.7642 17.9571 11.7539L18.0224 11.75H18.9992ZM16.75 9C16.75 8.93369 16.7763 8.87011 16.8232 8.82322C16.8701 8.77634 16.9337 8.75 17 8.75H19C19.0663 8.75 19.1299 8.77634 19.1768 8.82322C19.2237 8.87011 19.25 8.93369 19.25 9C19.25 9.06631 19.2237 9.12989 19.1768 9.17678C19.1299 9.22366 19.0663 9.25 19 9.25H17C16.9337 9.25 16.8701 9.22366 16.8232 9.17678C16.7763 9.12989 16.75 9.06631 16.75 9ZM15.8232 5.82322C15.8701 5.77634 15.9337 5.75 16 5.75H19C19.0663 5.75 19.1299 5.77634 19.1768 5.82322C19.2237 5.87011 19.25 5.93369 19.25 6C19.25 6.06631 19.2237 6.12989 19.1768 6.17678C19.1299 6.22366 19.0663 6.25 19 6.25H16C15.9337 6.25 15.8701 6.22366 15.8232 6.17678C15.7763 6.12989 15.75 6.06631 15.75 6C15.75 5.93369 15.7763 5.87011 15.8232 5.82322Z" stroke="#0B1729" stroke-width="1.5" />
</svg>
