<svg width="18" height="19" viewBox="0 0 18 19" fill="none" xmlns="http://www.w3.org/2000/svg">
<mask id="path-1-inside-1_12_21891" fill="white">
<path fill-rule="evenodd" clip-rule="evenodd" d="M18 8.83281V17.5C18 18.3284 17.3284 19 16.5 19H12.75C11.9216 19 11.25 18.3284 11.25 17.5V13.75C11.25 13.3358 10.9142 13 10.5 13H7.5C7.08579 13 6.75 13.3358 6.75 13.75V17.5C6.75 18.3284 6.07843 19 5.25 19H1.5C0.671573 19 0 18.3284 0 17.5V8.83281C-6.38962e-05 8.41309 0.17573 8.01254 0.484688 7.72844L7.98469 0.652188L7.995 0.641875C8.56719 0.121501 9.44124 0.121501 10.0134 0.641875C10.0166 0.645543 10.0201 0.648989 10.0238 0.652188L17.5238 7.72844C17.8296 8.01402 18.0022 8.41437 18 8.83281Z"/>
</mask>
<path d="M0 8.83281H1.4V8.8326L0 8.83281ZM0.484688 7.72844L1.43231 8.75898L1.43892 8.7529L1.44545 8.74674L0.484688 7.72844ZM7.98469 0.652188L8.94545 1.67049L8.96026 1.65651L8.97466 1.64211L7.98469 0.652188ZM7.995 0.641875L7.05306 -0.393863L7.0285 -0.371527L7.00503 -0.348052L7.995 0.641875ZM10.0134 0.641875L11.0686 -0.278224L11.0153 -0.339322L10.9554 -0.393863L10.0134 0.641875ZM10.0238 0.652188L10.9845 -0.366111L10.9645 -0.384954L10.9438 -0.402999L10.0238 0.652188ZM17.5238 7.72844L16.563 8.74675L16.5683 8.7517L17.5238 7.72844ZM16.6 8.83281V17.5H19.4V8.83281H16.6ZM16.6 17.5C16.6 17.5552 16.5552 17.6 16.5 17.6V20.4C18.1016 20.4 19.4 19.1016 19.4 17.5H16.6ZM16.5 17.6H12.75V20.4H16.5V17.6ZM12.75 17.6C12.6948 17.6 12.65 17.5552 12.65 17.5H9.85C9.85 19.1016 11.1484 20.4 12.75 20.4V17.6ZM12.65 17.5V13.75H9.85V17.5H12.65ZM12.65 13.75C12.65 12.5626 11.6874 11.6 10.5 11.6V14.4C10.141 14.4 9.85 14.109 9.85 13.75H12.65ZM10.5 11.6H7.5V14.4H10.5V11.6ZM7.5 11.6C6.31259 11.6 5.35 12.5626 5.35 13.75H8.15C8.15 14.109 7.85898 14.4 7.5 14.4V11.6ZM5.35 13.75V17.5H8.15V13.75H5.35ZM5.35 17.5C5.35 17.5552 5.30523 17.6 5.25 17.6V20.4C6.85163 20.4 8.15 19.1016 8.15 17.5H5.35ZM5.25 17.6H1.5V20.4H5.25V17.6ZM1.5 17.6C1.44477 17.6 1.4 17.5552 1.4 17.5H-1.4C-1.4 19.1016 -0.101626 20.4 1.5 20.4V17.6ZM1.4 17.5V8.83281H-1.4V17.5H1.4ZM1.4 8.8326C1.4 8.80462 1.41172 8.77792 1.43231 8.75898L-0.462937 6.6979C-1.06026 7.24716 -1.40012 8.02156 -1.4 8.83302L1.4 8.8326ZM1.44545 8.74674L8.94545 1.67049L7.02392 -0.366111L-0.476077 6.71014L1.44545 8.74674ZM8.97466 1.64211L8.98497 1.6318L7.00503 -0.348052L6.99472 -0.337739L8.97466 1.64211ZM8.93694 1.67761C8.97508 1.64292 9.03335 1.64292 9.0715 1.67761L10.9554 -0.393863C9.84913 -1.39992 8.1593 -1.39992 7.05306 -0.393863L8.93694 1.67761ZM8.95825 1.56197C9.00339 1.61374 9.05198 1.66232 9.10365 1.70737L10.9438 -0.402999C10.9882 -0.364339 11.0299 -0.322657 11.0686 -0.278224L8.95825 1.56197ZM9.06299 1.67049L16.563 8.74674L18.4845 6.71014L10.9845 -0.366111L9.06299 1.67049ZM16.5683 8.7517C16.5887 8.77073 16.6002 8.79742 16.6 8.82532L19.4 8.8403C19.4043 8.03132 19.0705 7.25731 18.4792 6.70518L16.5683 8.7517Z" fill="#0B1729" mask="url(#path-1-inside-1_12_21891)"/>
</svg>
