<svg width="40" height="40" viewBox="0 0 24 24" fill="none" xmlns="http://www.w3.org/2000/svg">
	<rect x="3.59082" y="2" width="16.3636" height="20" rx="1.81818" stroke="#0B1729" stroke-width="1.5" />
	<path d="M10.0417 6.31579C10.0417 5.898 10.206 5.49888 10.496 5.20583C10.7857 4.91304 11.177 4.75 11.5833 4.75C11.9897 4.75 12.3809 4.91304 12.6707 5.20583C12.9607 5.49888 13.125 5.898 13.125 6.31579C13.125 6.73358 12.9607 7.1327 12.6707 7.42575C12.3809 7.71854 11.9897 7.88158 11.5833 7.88158C11.177 7.88158 10.7857 7.71854 10.496 7.42575C10.206 7.1327 10.0417 6.73358 10.0417 6.31579ZM8.53992 11.9134C9.04454 11.4035 9.72728 11.1184 10.4375 11.1184H12.7292C13.4394 11.1184 14.1221 11.4035 14.6267 11.9134C15.1316 12.4236 15.4167 13.1172 15.4167 13.8421C15.4167 13.9528 15.3731 14.0574 15.298 14.1333C15.2231 14.209 15.1233 14.25 15.0208 14.25H8.14583C8.0434 14.25 7.94356 14.209 7.86871 14.1333C7.79359 14.0574 7.75 13.9528 7.75 13.8421C7.75 13.1172 8.03503 12.4236 8.53992 11.9134Z" stroke="#0B1729" stroke-width="1.5" />
	<rect x="6" y="17" width="11" height="1" rx="0.5" fill="#0B1729" />
	<rect x="6" y="19" width="8" height="1" rx="0.5" fill="#0B1729" />
</svg>
