<svg width="17" height="20" viewBox="0 0 17 20" fill="none" xmlns="http://www.w3.org/2000/svg">
<path fill-rule="evenodd" clip-rule="evenodd" d="M2.409 0C1.40485 0 0.59082 0.814028 0.59082 1.81818V18.1818C0.59082 19.186 1.40485 20 2.409 20H15.1363C16.1404 20 16.9545 19.186 16.9545 18.1818V1.81818C16.9545 0.814028 16.1404 0 15.1363 0H2.409ZM6.96276 2.67828C6.53299 3.11257 6.29154 3.7016 6.29154 4.31579C6.29154 4.92998 6.53299 5.519 6.96276 5.9533C7.39253 6.38759 7.97542 6.63158 8.58321 6.63158C9.191 6.63158 9.77389 6.38759 10.2037 5.9533C10.6334 5.519 10.8749 4.92998 10.8749 4.31579C10.8749 3.7016 10.6334 3.11257 10.2037 2.67828C9.77389 2.24398 9.191 2 8.58321 2C7.97542 2 7.39253 2.24398 6.96276 2.67828ZM5.0067 9.38584C5.65135 8.7344 6.5257 8.36842 7.43738 8.36842H9.72904C10.6407 8.36842 11.5151 8.7344 12.1597 9.38584C12.8044 10.0373 13.1665 10.9208 13.1665 11.8421C13.1665 12.1492 13.0458 12.4437 12.8309 12.6609C12.6161 12.878 12.3246 13 12.0207 13H5.14571C4.84182 13 4.55037 12.878 4.33548 12.6609C4.1206 12.4437 3.99988 12.1492 3.99988 11.8421C3.99988 10.9208 4.36204 10.0373 5.0067 9.38584ZM2.99988 15.5C2.99988 15.2239 3.22374 15 3.49988 15H13.4999C13.776 15 13.9999 15.2239 13.9999 15.5C13.9999 15.7761 13.776 16 13.4999 16H3.49988C3.22374 16 2.99988 15.7761 2.99988 15.5ZM3.49988 17C3.22374 17 2.99988 17.2239 2.99988 17.5C2.99988 17.7761 3.22374 18 3.49988 18H10.4999C10.776 18 10.9999 17.7761 10.9999 17.5C10.9999 17.2239 10.776 17 10.4999 17H3.49988Z" fill="white"/>
</svg>
