<svg width="18" height="18" viewBox="0 0 18 18" fill="none" xmlns="http://www.w3.org/2000/svg">
<path fill-rule="evenodd" clip-rule="evenodd" d="M1.92857 0C1.41708 0 0.926543 0.203188 0.564865 0.564866C0.203188 0.926543 0 1.41708 0 1.92857L0 9.64286C0 10.1543 0.203188 10.6449 0.564865 11.0066C0.926543 11.3682 1.41708 11.5714 1.92857 11.5714H16.0714C16.5829 11.5714 17.0735 11.3682 17.4351 11.0066C17.7968 10.6449 18 10.1543 18 9.64286V1.92857C18 1.41708 17.7968 0.926543 17.4351 0.564866C17.0735 0.203188 16.5829 0 16.0714 0L1.92857 0ZM9.80357 1.86943C9.80357 1.65631 9.71891 1.45192 9.56821 1.30122C9.41751 1.15052 9.21312 1.06586 9 1.06586C8.78688 1.06586 8.58249 1.15052 8.43179 1.30122C8.28109 1.45192 8.19643 1.65631 8.19643 1.86943V2.38371C7.73372 2.43793 7.30521 2.6544 6.98701 2.99467C6.66881 3.33493 6.48151 3.77697 6.45838 4.24227C6.43526 4.70756 6.5778 5.16599 6.8607 5.53614C7.14359 5.90628 7.54852 6.16417 8.00357 6.264L9.54257 6.59957C9.66647 6.62308 9.77697 6.69242 9.85203 6.79376C9.9271 6.8951 9.96122 7.02101 9.94759 7.14638C9.93397 7.27176 9.8736 7.38739 9.77852 7.47025C9.68344 7.5531 9.56063 7.59708 9.43457 7.59343H8.56543C8.46145 7.59378 8.35993 7.56179 8.27494 7.5019C8.18994 7.44201 8.12566 7.35718 8.091 7.25914C8.01503 7.06503 7.8666 6.90803 7.67705 6.8213C7.48751 6.73456 7.27167 6.72488 7.07512 6.79429C6.87856 6.8637 6.71667 7.00678 6.62362 7.19331C6.53058 7.37984 6.51365 7.59523 6.57643 7.794C6.82586 8.50114 7.44171 9.03471 8.19643 9.16843V9.702C8.19643 9.91512 8.28109 10.1195 8.43179 10.2702C8.58249 10.4209 8.78688 10.5056 9 10.5056C9.21312 10.5056 9.41751 10.4209 9.56821 10.2702C9.71891 10.1195 9.80357 9.91512 9.80357 9.702V9.16714C10.2846 9.08191 10.7211 8.83239 11.0387 8.46116C11.3563 8.08994 11.5352 7.62002 11.5449 7.13159C11.5546 6.64316 11.3945 6.1665 11.092 5.78295C10.7894 5.39939 10.3631 5.13272 9.88586 5.02843L8.34686 4.69286C8.25915 4.67445 8.18142 4.62411 8.12875 4.5516C8.07609 4.4791 8.05225 4.38961 8.06186 4.30051C8.07148 4.21141 8.11386 4.12907 8.18078 4.06947C8.2477 4.00987 8.33439 3.97727 8.424 3.978H9.43457C9.53855 3.97765 9.64007 4.00964 9.72506 4.06953C9.81006 4.12942 9.87434 4.21425 9.909 4.31229C9.94146 4.41508 9.99428 4.51029 10.0643 4.59225C10.1343 4.67421 10.2201 4.74124 10.3166 4.78936C10.413 4.83748 10.5182 4.8657 10.6258 4.87233C10.7334 4.87897 10.8412 4.86389 10.9428 4.828C11.0445 4.79211 11.1379 4.73613 11.2174 4.6634C11.297 4.59066 11.3611 4.50267 11.406 4.40465C11.4508 4.30663 11.4755 4.20058 11.4785 4.09283C11.4815 3.98507 11.4629 3.87781 11.4236 3.77743C11.2994 3.42545 11.0839 3.11275 10.7993 2.87128C10.5147 2.62981 10.1711 2.46821 9.80357 2.403V1.86943ZM3.53571 4.82143C3.79146 4.82143 4.03673 4.92302 4.21757 5.10386C4.39841 5.2847 4.5 5.52997 4.5 5.78571C4.5 6.04146 4.39841 6.28673 4.21757 6.46757C4.03673 6.64841 3.79146 6.75 3.53571 6.75C3.27997 6.75 3.0347 6.64841 2.85386 6.46757C2.67302 6.28673 2.57143 6.04146 2.57143 5.78571C2.57143 5.52997 2.67302 5.2847 2.85386 5.10386C3.0347 4.92302 3.27997 4.82143 3.53571 4.82143ZM14.4643 4.82143C14.72 4.82143 14.9653 4.92302 15.1461 5.10386C15.327 5.2847 15.4286 5.52997 15.4286 5.78571C15.4286 6.04146 15.327 6.28673 15.1461 6.46757C14.9653 6.64841 14.72 6.75 14.4643 6.75C14.2085 6.75 13.9633 6.64841 13.7824 6.46757C13.6016 6.28673 13.5 6.04146 13.5 5.78571C13.5 5.52997 13.6016 5.2847 13.7824 5.10386C13.9633 4.92302 14.2085 4.82143 14.4643 4.82143ZM5.78571 12.6964C6.22929 12.6964 6.58929 13.0564 6.58929 13.5V16.0714C6.58929 16.2845 6.50462 16.4889 6.35393 16.6396C6.20323 16.7903 5.99883 16.875 5.78571 16.875C5.57259 16.875 5.3682 16.7903 5.2175 16.6396C5.0668 16.4889 4.98214 16.2845 4.98214 16.0714V13.5C4.98214 13.0564 5.34214 12.6964 5.78571 12.6964ZM13.0179 13.5C13.0179 13.3945 12.9971 13.29 12.9567 13.1925C12.9163 13.095 12.8571 13.0064 12.7825 12.9318C12.7079 12.8572 12.6193 12.798 12.5218 12.7576C12.4243 12.7172 12.3198 12.6964 12.2143 12.6964C12.1088 12.6964 12.0043 12.7172 11.9068 12.7576C11.8093 12.798 11.7207 12.8572 11.6461 12.9318C11.5715 13.0064 11.5123 13.095 11.4719 13.1925C11.4315 13.29 11.4107 13.3945 11.4107 13.5V16.0714C11.4107 16.177 11.4315 16.2814 11.4719 16.3789C11.5123 16.4764 11.5715 16.565 11.6461 16.6396C11.7207 16.7143 11.8093 16.7735 11.9068 16.8138C12.0043 16.8542 12.1088 16.875 12.2143 16.875C12.3198 16.875 12.4243 16.8542 12.5218 16.8138C12.6193 16.7735 12.7079 16.7143 12.7825 16.6396C12.8571 16.565 12.9163 16.4764 12.9567 16.3789C12.9971 16.2814 13.0179 16.177 13.0179 16.0714V13.5ZM9.80357 14.4643C9.80357 14.2512 9.71891 14.0468 9.56821 13.8961C9.41751 13.7454 9.21312 13.6607 9 13.6607C8.78688 13.6607 8.58249 13.7454 8.43179 13.8961C8.28109 14.0468 8.19643 14.2512 8.19643 14.4643V17.0357C8.19643 17.2488 8.28109 17.4532 8.43179 17.6039C8.58249 17.7546 8.78688 17.8393 9 17.8393C9.21312 17.8393 9.41751 17.7546 9.56821 17.6039C9.71891 17.4532 9.80357 17.2488 9.80357 17.0357V14.4643Z" fill="white"/>
</svg>
