<svg width="20" height="20" viewBox="0 0 20 20" fill="none" xmlns="http://www.w3.org/2000/svg">
<path d="M10.0003 16.2307V19M13.4618 14.8461V17.6154M6.53876 14.8461V17.6154M11.4735 5.00013C11.3947 4.77461 11.2475 4.57927 11.0524 4.44129C10.8574 4.30331 10.6241 4.22956 10.3852 4.23029H9.49215C9.23887 4.23119 8.99479 4.32537 8.80656 4.49483C8.61832 4.6643 8.49911 4.89717 8.4717 5.14897C8.4443 5.40076 8.51061 5.65383 8.65798 5.85983C8.80536 6.06582 9.02345 6.2103 9.27061 6.26567L10.6317 6.56475C10.9088 6.62655 11.1535 6.7883 11.3189 7.01909C11.4843 7.24988 11.5589 7.53353 11.5284 7.81584C11.498 8.09815 11.3645 8.35934 11.1536 8.54948C10.9427 8.73962 10.6692 8.8454 10.3852 8.8466H9.61538C9.37646 8.84732 9.14325 8.77357 8.9482 8.63559C8.75314 8.49762 8.60594 8.30228 8.52707 8.07675M10.0003 4.23029V3.0769M10.0003 9.99998V8.8466M4.11569 6.8846C4.02388 6.8846 3.93583 6.84813 3.87092 6.78321C3.806 6.71829 3.76953 6.63025 3.76953 6.53844C3.76953 6.44664 3.806 6.35859 3.87092 6.29367C3.93583 6.22876 4.02388 6.19229 4.11569 6.19229C4.20749 6.19229 4.29554 6.22876 4.36045 6.29367C4.42537 6.35859 4.46184 6.44664 4.46184 6.53844C4.46184 6.63025 4.42537 6.71829 4.36045 6.78321C4.29554 6.84813 4.20749 6.8846 4.11569 6.8846ZM15.8849 6.8846C15.7931 6.8846 15.7051 6.84813 15.6401 6.78321C15.5752 6.71829 15.5388 6.63025 15.5388 6.53844C15.5388 6.44664 15.5752 6.35859 15.6401 6.29367C15.7051 6.22876 15.7931 6.19229 15.8849 6.19229C15.9767 6.19229 16.0648 6.22876 16.1297 6.29367C16.1946 6.35859 16.2311 6.44664 16.2311 6.53844C16.2311 6.63025 16.1946 6.71829 16.1297 6.78321C16.0648 6.84813 15.9767 6.8846 15.8849 6.8846Z" stroke="#0B1729" stroke-width="1.38462" stroke-linecap="round" stroke-linejoin="round"/>
<path d="M17.6154 1H2.38462C2.01739 1 1.66521 1.14588 1.40554 1.40554C1.14588 1.66521 1 2.01739 1 2.38462V10.6923C1 11.0595 1.14588 11.4117 1.40554 11.6714C1.66521 11.931 2.01739 12.0769 2.38462 12.0769H17.6154C17.9826 12.0769 18.3348 11.931 18.5945 11.6714C18.8541 11.4117 19 11.0595 19 10.6923V2.38462C19 2.01739 18.8541 1.66521 18.5945 1.40554C18.3348 1.14588 17.9826 1 17.6154 1Z" stroke="#0B1729" stroke-width="1.38462" stroke-linecap="round" stroke-linejoin="round"/>
</svg>
