<svg width="20" height="20" viewBox="0 0 20 20" fill="none" xmlns="http://www.w3.org/2000/svg">
<path d="M1.90039 2.80005V17.2C1.90039 18.0487 1.90039 18.4727 2.16409 18.7364C2.42779 19.0001 2.85169 19 3.70039 19H16.3004C17.1491 19 17.573 19.0001 17.8367 18.7364C18.1004 18.4727 18.1004 18.0487 18.1004 17.2V2.80005M8.65039 6.40005V7.75005M8.65039 7.75005V9.10005M8.65039 7.75005H11.3504M11.3504 6.40005V7.75005M11.3504 7.75005V9.10005" stroke="#0B1729" stroke-width="1.35" stroke-linecap="round" stroke-linejoin="round"/>
<path d="M11.8 19V15.4C11.8 14.9226 11.6104 14.4648 11.2728 14.1272C10.9352 13.7896 10.4774 13.6 10 13.6C9.52261 13.6 9.06477 13.7896 8.72721 14.1272C8.38964 14.4648 8.2 14.9226 8.2 15.4V19M1 2.8H6.4C6.976 1.7443 8.371 1 10 1C11.629 1 13.024 1.7443 13.6 2.8H19M4.6 6.4H5.5M4.6 10H5.5M4.6 13.6H5.5M14.5 6.4H15.4M14.5 10H15.4M14.5 13.6H15.4" stroke="#0B1729" stroke-width="1.35" stroke-linecap="round" stroke-linejoin="round"/>
</svg>
