<svg width="20" height="20" viewBox="0 0 20 20" fill="none" xmlns="http://www.w3.org/2000/svg">
<path fill-rule="evenodd" clip-rule="evenodd" d="M6.4 2.42105H1.9H1.71053C1.31811 2.42105 1 2.73916 1 3.13157C1 3.52399 1.31811 3.8421 1.71053 3.8421H1.9V9.99999V17.0526C1.9 18.1281 2.77187 19 3.84737 19H16.1526C17.2281 19 18.1 18.1281 18.1 17.0526V9.99999V3.8421H18.2895C18.6819 3.8421 19 3.52399 19 3.13157C19 2.73916 18.6819 2.42105 18.2895 2.42105L13.6 2.42106C13.6 2.42106 11.35 1 10 1C8.33282 1 6.4 2.42105 6.4 2.42105ZM3.77002 6.5C3.35581 6.5 3.02002 6.16421 3.02002 5.75C3.02002 5.33579 3.35581 5 3.77002 5H5.49907C5.91328 5 6.24907 5.33579 6.24907 5.75C6.24907 6.16421 5.91328 6.5 5.49907 6.5H3.77002ZM8.75 5C8.33579 5 8 5.33579 8 5.75V8.75C8 9.16421 8.33579 9.5 8.75 9.5C9.16421 9.5 9.5 9.16421 9.5 8.75V8H11V8.75C11 9.16421 11.3358 9.5 11.75 9.5C12.1642 9.5 12.5 9.16421 12.5 8.75V5.75C12.5 5.33579 12.1642 5 11.75 5C11.3358 5 11 5.33579 11 5.75V6.5H9.5V5.75C9.5 5.33579 9.16421 5 8.75 5ZM14.01 5.77173C14.01 6.18594 14.3458 6.52173 14.76 6.52173H16.4891C16.9033 6.52173 17.2391 6.18594 17.2391 5.77173C17.2391 5.35751 16.9033 5.02173 16.4891 5.02173H14.76C14.3458 5.02173 14.01 5.35751 14.01 5.77173ZM14 9.75C14 10.1642 14.3358 10.5 14.75 10.5H16.479C16.8933 10.5 17.229 10.1642 17.229 9.75C17.229 9.33579 16.8933 9 16.479 9H14.75C14.3358 9 14 9.33579 14 9.75ZM3.76001 10.4783C3.3458 10.4783 3.01001 10.1425 3.01001 9.72827C3.01001 9.31406 3.3458 8.97827 3.76001 8.97827H5.48906C5.90327 8.97827 6.23906 9.31406 6.23906 9.72827C6.23906 10.1425 5.90327 10.4783 5.48906 10.4783H3.76001ZM13.99 13.7283C13.99 14.1425 14.3258 14.4783 14.74 14.4783H16.469C16.8833 14.4783 17.219 14.1425 17.219 13.7283C17.219 13.3141 16.8833 12.9783 16.469 12.9783H14.74C14.3258 12.9783 13.99 13.3141 13.99 13.7283ZM3.75 14.4565C3.33579 14.4565 3 14.1208 3 13.7065C3 13.2923 3.33579 12.9565 3.75 12.9565H5.47905C5.89326 12.9565 6.22905 13.2923 6.22905 13.7065C6.22905 14.1208 5.89326 14.4565 5.47905 14.4565H3.75ZM10.25 12C9.00736 12 8 13.0074 8 14.25V18H12.5V14.25C12.5 13.0074 11.4926 12 10.25 12Z" fill="white"/>
<path d="M6.4 2.42105V2.67105H6.48201L6.54809 2.62247L6.4 2.42105ZM1.9 3.8421H2.15V3.5921H1.9V3.8421ZM18.1 3.8421V3.5921H17.85V3.8421H18.1ZM18.2895 2.42105V2.67105V2.42105ZM13.6 2.42106L13.4665 2.63243L13.5277 2.67106L13.6 2.67106L13.6 2.42106ZM9.5 8V7.75H9.25V8H9.5ZM11 8H11.25V7.75H11V8ZM11 6.5V6.75H11.25V6.5H11ZM9.5 6.5H9.25V6.75H9.5V6.5ZM8 18H7.75V18.25H8V18ZM12.5 18V18.25H12.75V18H12.5ZM1.9 2.67105H6.4V2.17105H1.9V2.67105ZM1.71053 2.67105H1.9V2.17105H1.71053V2.67105ZM1.25 3.13157C1.25 2.87723 1.45618 2.67105 1.71053 2.67105V2.17105C1.18004 2.17105 0.75 2.60109 0.75 3.13157H1.25ZM1.71053 3.5921C1.45618 3.5921 1.25 3.38591 1.25 3.13157H0.75C0.75 3.66206 1.18004 4.0921 1.71053 4.0921V3.5921ZM1.9 3.5921H1.71053V4.0921H1.9V3.5921ZM2.15 9.99999V3.8421H1.65V9.99999H2.15ZM2.15 17.0526V9.99999H1.65V17.0526H2.15ZM3.84737 18.75C2.90994 18.75 2.15 17.9901 2.15 17.0526H1.65C1.65 18.2662 2.6338 19.25 3.84737 19.25V18.75ZM16.1526 18.75H3.84737V19.25H16.1526V18.75ZM17.85 17.0526C17.85 17.9901 17.0901 18.75 16.1526 18.75V19.25C17.3662 19.25 18.35 18.2662 18.35 17.0526H17.85ZM17.85 9.99999V17.0526H18.35V9.99999H17.85ZM17.85 3.8421V9.99999H18.35V3.8421H17.85ZM18.2895 3.5921H18.1V4.0921H18.2895V3.5921ZM18.75 3.13157C18.75 3.38591 18.5438 3.5921 18.2895 3.5921V4.0921C18.82 4.0921 19.25 3.66206 19.25 3.13157H18.75ZM18.2895 2.67105C18.5438 2.67105 18.75 2.87723 18.75 3.13157H19.25C19.25 2.60109 18.82 2.17105 18.2895 2.17105V2.67105ZM13.6 2.67106L18.2895 2.67105V2.17105L13.6 2.17106L13.6 2.67106ZM10 1.25C10.6115 1.25 11.4647 1.57961 12.197 1.9354C12.5561 2.10988 12.8744 2.28462 13.1029 2.41582C13.217 2.48136 13.3085 2.53587 13.3712 2.57384C13.4025 2.59282 13.4266 2.60765 13.4428 2.61765C13.4509 2.62265 13.4569 2.62644 13.4609 2.62893C13.4629 2.63018 13.4644 2.6311 13.4653 2.63169C13.4658 2.63198 13.4661 2.63219 13.4663 2.63231C13.4664 2.63238 13.4665 2.63242 13.4665 2.63244C13.4665 2.63245 13.4665 2.63244 13.4665 2.63245C13.4665 2.63244 13.4665 2.63243 13.6 2.42106C13.7335 2.20969 13.7335 2.20966 13.7334 2.20963C13.7334 2.20962 13.7333 2.20958 13.7333 2.20955C13.7332 2.20948 13.733 2.2094 13.7329 2.20929C13.7325 2.20907 13.732 2.20876 13.7314 2.20837C13.7302 2.20759 13.7284 2.20648 13.7261 2.20503C13.7215 2.20215 13.7147 2.19796 13.706 2.19255C13.6885 2.18173 13.663 2.16603 13.6302 2.14616C13.5646 2.10641 13.4697 2.0499 13.3518 1.98221C13.1163 1.84696 12.7876 1.66645 12.4155 1.48566C11.6853 1.13092 10.7385 0.75 10 0.75V1.25ZM6.4 2.42105C6.54809 2.62247 6.54805 2.62249 6.54803 2.62251C6.54803 2.62251 6.54801 2.62252 6.54801 2.62252C6.54802 2.62252 6.54805 2.62249 6.54811 2.62245C6.54824 2.62235 6.54848 2.62218 6.54884 2.62192C6.54955 2.62139 6.55073 2.62054 6.55235 2.61936C6.55561 2.617 6.56067 2.61335 6.56747 2.60848C6.58108 2.59876 6.60165 2.5842 6.62864 2.56551C6.68264 2.52811 6.76226 2.47421 6.86323 2.40931C7.0654 2.27935 7.35201 2.10603 7.68904 1.9329C8.37087 1.58266 9.22736 1.25 10 1.25V0.75C9.10547 0.75 8.16195 1.12787 7.46058 1.48815C7.10601 1.67028 6.80521 1.85222 6.59287 1.98871C6.48659 2.05702 6.40219 2.11414 6.34397 2.15446C6.31486 2.17462 6.29227 2.1906 6.27675 2.20169C6.26899 2.20724 6.263 2.21156 6.25884 2.21458C6.25675 2.21609 6.25513 2.21727 6.25398 2.21811C6.2534 2.21854 6.25293 2.21888 6.25259 2.21913C6.25242 2.21925 6.25228 2.21936 6.25216 2.21944C6.25211 2.21948 6.25204 2.21953 6.25202 2.21955C6.25196 2.21959 6.25191 2.21963 6.4 2.42105ZM2.77002 5.75C2.77002 6.30228 3.21773 6.75 3.77002 6.75V6.25C3.49388 6.25 3.27002 6.02614 3.27002 5.75H2.77002ZM3.77002 4.75C3.21774 4.75 2.77002 5.19772 2.77002 5.75H3.27002C3.27002 5.47386 3.49388 5.25 3.77002 5.25V4.75ZM5.49907 4.75H3.77002V5.25H5.49907V4.75ZM6.49907 5.75C6.49907 5.19772 6.05135 4.75 5.49907 4.75V5.25C5.77521 5.25 5.99907 5.47386 5.99907 5.75H6.49907ZM5.49907 6.75C6.05135 6.75 6.49907 6.30228 6.49907 5.75H5.99907C5.99907 6.02614 5.77521 6.25 5.49907 6.25V6.75ZM3.77002 6.75H5.49907V6.25H3.77002V6.75ZM8.25 5.75C8.25 5.47386 8.47386 5.25 8.75 5.25V4.75C8.19772 4.75 7.75 5.19772 7.75 5.75H8.25ZM8.25 8.75V5.75H7.75V8.75H8.25ZM8.75 9.25C8.47386 9.25 8.25 9.02614 8.25 8.75H7.75C7.75 9.30228 8.19772 9.75 8.75 9.75V9.25ZM9.25 8.75C9.25 9.02614 9.02614 9.25 8.75 9.25V9.75C9.30228 9.75 9.75 9.30228 9.75 8.75H9.25ZM9.25 8V8.75H9.75V8H9.25ZM11 7.75H9.5V8.25H11V7.75ZM11.25 8.75V8H10.75V8.75H11.25ZM11.75 9.25C11.4739 9.25 11.25 9.02614 11.25 8.75H10.75C10.75 9.30228 11.1977 9.75 11.75 9.75V9.25ZM12.25 8.75C12.25 9.02614 12.0261 9.25 11.75 9.25V9.75C12.3023 9.75 12.75 9.30228 12.75 8.75H12.25ZM12.25 5.75V8.75H12.75V5.75H12.25ZM11.75 5.25C12.0261 5.25 12.25 5.47386 12.25 5.75H12.75C12.75 5.19772 12.3023 4.75 11.75 4.75V5.25ZM11.25 5.75C11.25 5.47386 11.4739 5.25 11.75 5.25V4.75C11.1977 4.75 10.75 5.19772 10.75 5.75H11.25ZM11.25 6.5V5.75H10.75V6.5H11.25ZM9.5 6.75H11V6.25H9.5V6.75ZM9.25 5.75V6.5H9.75V5.75H9.25ZM8.75 5.25C9.02614 5.25 9.25 5.47386 9.25 5.75H9.75C9.75 5.19772 9.30228 4.75 8.75 4.75V5.25ZM14.76 6.27173C14.4839 6.27173 14.26 6.04787 14.26 5.77173H13.76C13.76 6.32401 14.2077 6.77173 14.76 6.77173V6.27173ZM16.4891 6.27173H14.76V6.77173H16.4891V6.27173ZM16.9891 5.77173C16.9891 6.04787 16.7652 6.27173 16.4891 6.27173V6.77173C17.0413 6.77173 17.4891 6.32401 17.4891 5.77173H16.9891ZM16.4891 5.27173C16.7652 5.27173 16.9891 5.49559 16.9891 5.77173H17.4891C17.4891 5.21944 17.0413 4.77173 16.4891 4.77173V5.27173ZM14.76 5.27173H16.4891V4.77173H14.76V5.27173ZM14.26 5.77173C14.26 5.49559 14.4839 5.27173 14.76 5.27173V4.77173C14.2077 4.77173 13.76 5.21944 13.76 5.77173H14.26ZM14.75 10.25C14.4739 10.25 14.25 10.0261 14.25 9.75H13.75C13.75 10.3023 14.1977 10.75 14.75 10.75V10.25ZM16.479 10.25H14.75V10.75H16.479V10.25ZM16.979 9.75C16.979 10.0261 16.7552 10.25 16.479 10.25V10.75C17.0313 10.75 17.479 10.3023 17.479 9.75H16.979ZM16.479 9.25C16.7552 9.25 16.979 9.47386 16.979 9.75H17.479C17.479 9.19772 17.0313 8.75 16.479 8.75V9.25ZM14.75 9.25H16.479V8.75H14.75V9.25ZM14.25 9.75C14.25 9.47386 14.4739 9.25 14.75 9.25V8.75C14.1977 8.75 13.75 9.19772 13.75 9.75H14.25ZM2.76001 9.72827C2.76001 10.2806 3.20772 10.7283 3.76001 10.7283V10.2283C3.48387 10.2283 3.26001 10.0044 3.26001 9.72827H2.76001ZM3.76001 8.72827C3.20773 8.72827 2.76001 9.17599 2.76001 9.72827H3.26001C3.26001 9.45213 3.48387 9.22827 3.76001 9.22827V8.72827ZM5.48906 8.72827H3.76001V9.22827H5.48906V8.72827ZM6.48906 9.72827C6.48906 9.17599 6.04134 8.72827 5.48906 8.72827V9.22827C5.7652 9.22827 5.98906 9.45213 5.98906 9.72827H6.48906ZM5.48906 10.7283C6.04134 10.7283 6.48906 10.2806 6.48906 9.72827H5.98906C5.98906 10.0044 5.7652 10.2283 5.48906 10.2283V10.7283ZM3.76001 10.7283H5.48906V10.2283H3.76001V10.7283ZM14.74 14.2283C14.4638 14.2283 14.24 14.0044 14.24 13.7283H13.74C13.74 14.2806 14.1877 14.7283 14.74 14.7283V14.2283ZM16.469 14.2283H14.74V14.7283H16.469V14.2283ZM16.969 13.7283C16.969 14.0044 16.7452 14.2283 16.469 14.2283V14.7283C17.0213 14.7283 17.469 14.2806 17.469 13.7283H16.969ZM16.469 13.2283C16.7452 13.2283 16.969 13.4521 16.969 13.7283H17.469C17.469 13.176 17.0213 12.7283 16.469 12.7283V13.2283ZM14.74 13.2283H16.469V12.7283H14.74V13.2283ZM14.24 13.7283C14.24 13.4521 14.4638 13.2283 14.74 13.2283V12.7283C14.1877 12.7283 13.74 13.176 13.74 13.7283H14.24ZM2.75 13.7065C2.75 14.2588 3.19771 14.7065 3.75 14.7065V14.2065C3.47386 14.2065 3.25 13.9827 3.25 13.7065H2.75ZM3.75 12.7065C3.19772 12.7065 2.75 13.1543 2.75 13.7065H3.25C3.25 13.4304 3.47386 13.2065 3.75 13.2065V12.7065ZM5.47905 12.7065H3.75V13.2065H5.47905V12.7065ZM6.47905 13.7065C6.47905 13.1543 6.03133 12.7065 5.47905 12.7065V13.2065C5.75519 13.2065 5.97905 13.4304 5.97905 13.7065H6.47905ZM5.47905 14.7065C6.03133 14.7065 6.47905 14.2588 6.47905 13.7065H5.97905C5.97905 13.9827 5.75519 14.2065 5.47905 14.2065V14.7065ZM3.75 14.7065H5.47905V14.2065H3.75V14.7065ZM8.25 14.25C8.25 13.1454 9.14543 12.25 10.25 12.25V11.75C8.86929 11.75 7.75 12.8693 7.75 14.25H8.25ZM8.25 18V14.25H7.75V18H8.25ZM12.5 17.75H8V18.25H12.5V17.75ZM12.25 14.25V18H12.75V14.25H12.25ZM10.25 12.25C11.3546 12.25 12.25 13.1454 12.25 14.25H12.75C12.75 12.8693 11.6307 11.75 10.25 11.75V12.25Z" fill="white"/>
</svg>
