<svg width="18" height="18" viewBox="0 0 18 18" fill="none" xmlns="http://www.w3.org/2000/svg">
<path d="M2.4 15V15.6H3.6V15H2.4ZM8.4 15V15.6H9.6V15H8.4ZM3.6 15V14.4H2.4V15H3.6ZM8.4 14.4V15H9.6V14.4H8.4ZM6 12C6.63652 12 7.24697 12.2529 7.69706 12.7029C8.14714 13.153 8.4 13.7635 8.4 14.4H9.6C9.6 13.4452 9.22072 12.5295 8.54558 11.8544C7.87045 11.1793 6.95478 10.8 6 10.8V12ZM3.6 14.4C3.6 13.7635 3.85286 13.153 4.30294 12.7029C4.75303 12.2529 5.36348 12 6 12V10.8C5.04522 10.8 4.12955 11.1793 3.45442 11.8544C2.77928 12.5295 2.4 13.4452 2.4 14.4H3.6ZM6 4.8C5.36348 4.8 4.75303 5.05286 4.30294 5.50294C3.85286 5.95303 3.6 6.56348 3.6 7.2H4.8C4.8 6.88174 4.92643 6.57652 5.15147 6.35147C5.37652 6.12643 5.68174 6 6 6V4.8ZM8.4 7.2C8.4 6.56348 8.14714 5.95303 7.69706 5.50294C7.24697 5.05286 6.63652 4.8 6 4.8V6C6.31826 6 6.62348 6.12643 6.84853 6.35147C7.07357 6.57652 7.2 6.88174 7.2 7.2H8.4ZM6 9.6C6.63652 9.6 7.24697 9.34714 7.69706 8.89706C8.14714 8.44697 8.4 7.83652 8.4 7.2H7.2C7.2 7.51826 7.07357 7.82348 6.84853 8.04853C6.62348 8.27357 6.31826 8.4 6 8.4V9.6ZM6 8.4C5.68174 8.4 5.37652 8.27357 5.15147 8.04853C4.92643 7.82348 4.8 7.51826 4.8 7.2H3.6C3.6 7.83652 3.85286 8.44697 4.30294 8.89706C4.75303 9.34714 5.36348 9.6 6 9.6V8.4ZM1.8 3.6H16.2V2.4H1.8V3.6ZM16.8 4.2V13.8H18V4.2H16.8ZM16.2 14.4H1.8V15.6H16.2V14.4ZM1.2 13.8V4.2H0V13.8H1.2ZM1.8 14.4C1.64087 14.4 1.48826 14.3368 1.37574 14.2243C1.26321 14.1117 1.2 13.9591 1.2 13.8H0C0 14.2774 0.189642 14.7352 0.527208 15.0728C0.864773 15.4104 1.32261 15.6 1.8 15.6V14.4ZM16.8 13.8C16.8 13.9591 16.7368 14.1117 16.6243 14.2243C16.5117 14.3368 16.3591 14.4 16.2 14.4V15.6C16.6774 15.6 17.1352 15.4104 17.4728 15.0728C17.8104 14.7352 18 14.2774 18 13.8H16.8ZM16.2 3.6C16.3591 3.6 16.5117 3.66321 16.6243 3.77574C16.7368 3.88826 16.8 4.04087 16.8 4.2H18C18 3.72261 17.8104 3.26477 17.4728 2.92721C17.1352 2.58964 16.6774 2.4 16.2 2.4V3.6ZM1.8 2.4C1.32261 2.4 0.864773 2.58964 0.527208 2.92721C0.189642 3.26477 0 3.72261 0 4.2H1.2C1.2 4.04087 1.26321 3.88826 1.37574 3.77574C1.48826 3.66321 1.64087 3.6 1.8 3.6V2.4ZM10.8 7.2H14.4V6H10.8V7.2ZM10.8 10.8H14.4V9.6H10.8V10.8ZM0 18H18V16.8H0V18ZM3.6 0V3H4.8V0H3.6ZM13.2 0V3H14.4V0H13.2Z" fill="#0B1729"/>
</svg>
