<svg width="18" height="16" viewBox="0 0 18 16" fill="none" xmlns="http://www.w3.org/2000/svg">
<path fill-rule="evenodd" clip-rule="evenodd" d="M13.2 2.4H4.8V0H3.6V2.4H1.8C1.32261 2.4 0.864773 2.58964 0.527208 2.92721C0.189642 3.26477 0 3.72261 0 4.2L0 13.8C0 14.2774 0.189642 14.7352 0.527208 15.0728C0.864773 15.4104 1.32261 15.6 1.8 15.6H16.2C16.6774 15.6 17.1352 15.4104 17.4728 15.0728C17.8104 14.7352 18 14.2774 18 13.8V4.2C18 3.72261 17.8104 3.26477 17.4728 2.92721C17.1352 2.58964 16.6774 2.4 16.2 2.4H14.4V0H13.2V2.4ZM3.6 7.2C3.6 6.56348 3.85286 5.95303 4.30294 5.50294C4.75303 5.05286 5.36348 4.8 6 4.8C6.63652 4.8 7.24697 5.05286 7.69706 5.50294C8.14714 5.95303 8.4 6.56348 8.4 7.2C8.4 7.83652 8.14714 8.44697 7.69706 8.89706C7.24697 9.34714 6.63652 9.6 6 9.6C5.36348 9.6 4.75303 9.34714 4.30294 8.89706C3.85286 8.44697 3.6 7.83652 3.6 7.2ZM2.8584 12.7416C3.15011 12.1582 3.59853 11.6675 4.15341 11.3245C4.70829 10.9816 5.3477 10.8 6 10.8C6.6523 10.8 7.29171 10.9816 7.84659 11.3245C8.40147 11.6675 8.84989 12.1582 9.1416 12.7416L9.5376 13.5312C9.58348 13.6228 9.60517 13.7246 9.60058 13.8269C9.59599 13.9292 9.56529 14.0286 9.5114 14.1157C9.45751 14.2028 9.38222 14.2747 9.2927 14.3244C9.20318 14.3742 9.10242 14.4002 9 14.4H3C2.89768 14.4 2.79707 14.3738 2.70771 14.324C2.61836 14.2741 2.54324 14.2023 2.48949 14.1152C2.43573 14.0281 2.40514 13.9288 2.40061 13.8266C2.39608 13.7244 2.41776 13.6227 2.4636 13.5312L2.8584 12.7416ZM10.8 7.2H14.4V6H10.8V7.2ZM10.8 10.8H14.4V9.6H10.8V10.8Z" fill="white"/>
</svg>
