<svg width="18" height="18" viewBox="0 0 18 18" fill="none" xmlns="http://www.w3.org/2000/svg">
<path d="M13.5045 5.25H4.5045V7.5H13.5045V5.25ZM11.2545 12H13.5045V13.5H11.2545V12ZM3.75 0C2.75544 0 1.80161 0.395088 1.09835 1.09835C0.395088 1.80161 0 2.75544 0 3.75V14.25C0 15.2446 0.395088 16.1984 1.09835 16.9016C1.80161 17.6049 2.75544 18 3.75 18H14.25C15.2446 18 16.1984 17.6049 16.9016 16.9016C17.6049 16.1984 18 15.2446 18 14.25V3.75C18 2.75544 17.6049 1.80161 16.9016 1.09835C16.1984 0.395088 15.2446 0 14.25 0H3.75ZM3.0045 5.25C3.0045 4.85218 3.16254 4.47064 3.44384 4.18934C3.72514 3.90804 4.10668 3.75 4.5045 3.75H13.5045C13.9023 3.75 14.2839 3.90804 14.5652 4.18934C14.8465 4.47064 15.0045 4.85218 15.0045 5.25V7.5C15.0045 7.89782 14.8465 8.27936 14.5652 8.56066C14.2839 8.84196 13.9023 9 13.5045 9H4.5045C4.10668 9 3.72514 8.84196 3.44384 8.56066C3.16254 8.27936 3.0045 7.89782 3.0045 7.5V5.25ZM11.2545 10.5H13.5045C13.9023 10.5 14.2839 10.658 14.5652 10.9393C14.8465 11.2206 15.0045 11.6022 15.0045 12V13.5C15.0045 13.8978 14.8465 14.2794 14.5652 14.5607C14.2839 14.842 13.9023 15 13.5045 15H11.2545C10.8567 15 10.4751 14.842 10.1938 14.5607C9.91254 14.2794 9.7545 13.8978 9.7545 13.5V12C9.7545 11.6022 9.91254 11.2206 10.1938 10.9393C10.4751 10.658 10.8567 10.5 11.2545 10.5ZM3.0045 11.25C3.0045 11.0511 3.08352 10.8603 3.22417 10.7197C3.36482 10.579 3.55559 10.5 3.7545 10.5H7.5045C7.70341 10.5 7.89418 10.579 8.03483 10.7197C8.17548 10.8603 8.2545 11.0511 8.2545 11.25C8.2545 11.4489 8.17548 11.6397 8.03483 11.7803C7.89418 11.921 7.70341 12 7.5045 12H3.7545C3.55559 12 3.36482 11.921 3.22417 11.7803C3.08352 11.6397 3.0045 11.4489 3.0045 11.25ZM3.7545 13.5H7.5045C7.70341 13.5 7.89418 13.579 8.03483 13.7197C8.17548 13.8603 8.2545 14.0511 8.2545 14.25C8.2545 14.4489 8.17548 14.6397 8.03483 14.7803C7.89418 14.921 7.70341 15 7.5045 15H3.7545C3.55559 15 3.36482 14.921 3.22417 14.7803C3.08352 14.6397 3.0045 14.4489 3.0045 14.25C3.0045 14.0511 3.08352 13.8603 3.22417 13.7197C3.36482 13.579 3.55559 13.5 3.7545 13.5Z" fill="white"/>
</svg>
