<svg width="18" height="18" viewBox="0 0 18 18" fill="none" xmlns="http://www.w3.org/2000/svg">
<path d="M2.99864 5.25C2.99864 4.85218 3.15668 4.47064 3.43798 4.18934C3.71928 3.90804 4.10082 3.75 4.49864 3.75H13.4986C13.8965 3.75 14.278 3.90804 14.5593 4.18934C14.8406 4.47064 14.9986 4.85218 14.9986 5.25V7.5C14.9986 7.89782 14.8406 8.27936 14.5593 8.56066C14.278 8.84196 13.8965 9 13.4986 9H4.49864C4.10082 9 3.71928 8.84196 3.43798 8.56066C3.15668 8.27936 2.99864 7.89782 2.99864 7.5V5.25ZM13.4986 5.25H4.49864V7.5H13.4986V5.25ZM11.2486 10.5C10.8508 10.5 10.4693 10.658 10.188 10.9393C9.90668 11.2206 9.74864 11.6022 9.74864 12V13.5C9.74864 13.8978 9.90668 14.2794 10.188 14.5607C10.4693 14.842 10.8508 15 11.2486 15H13.4986C13.8965 15 14.278 14.842 14.5593 14.5607C14.8406 14.2794 14.9986 13.8978 14.9986 13.5V12C14.9986 11.6022 14.8406 11.2206 14.5593 10.9393C14.278 10.658 13.8965 10.5 13.4986 10.5H11.2486ZM11.2486 12H13.4986V13.5H11.2486V12ZM2.99864 11.25C2.99864 11.0511 3.07766 10.8603 3.21831 10.7197C3.35896 10.579 3.54973 10.5 3.74864 10.5H7.49864C7.69755 10.5 7.88832 10.579 8.02897 10.7197C8.16962 10.8603 8.24864 11.0511 8.24864 11.25C8.24864 11.4489 8.16962 11.6397 8.02897 11.7803C7.88832 11.921 7.69755 12 7.49864 12H3.74864C3.54973 12 3.35896 11.921 3.21831 11.7803C3.07766 11.6397 2.99864 11.4489 2.99864 11.25ZM3.74864 13.5C3.54973 13.5 3.35896 13.579 3.21831 13.7197C3.07766 13.8603 2.99864 14.0511 2.99864 14.25C2.99864 14.4489 3.07766 14.6397 3.21831 14.7803C3.35896 14.921 3.54973 15 3.74864 15H7.49864C7.69755 15 7.88832 14.921 8.02897 14.7803C8.16962 14.6397 8.24864 14.4489 8.24864 14.25C8.24864 14.0511 8.16962 13.8603 8.02897 13.7197C7.88832 13.579 7.69755 13.5 7.49864 13.5H3.74864ZM3.74414 0C2.74958 0 1.79575 0.395088 1.09249 1.09835C0.389229 1.80161 -0.00585937 2.75544 -0.00585938 3.75V14.25C-0.00585938 15.2446 0.389229 16.1984 1.09249 16.9016C1.79575 17.6049 2.74958 18 3.74414 18H14.2441C15.2387 18 16.1925 17.6049 16.8958 16.9016C17.5991 16.1984 17.9941 15.2446 17.9941 14.25V3.75C17.9941 2.75544 17.5991 1.80161 16.8958 1.09835C16.1925 0.395088 15.2387 0 14.2441 0H3.74414ZM1.49414 3.75C1.49414 3.15326 1.73119 2.58097 2.15315 2.15901C2.57511 1.73705 3.1474 1.5 3.74414 1.5H14.2441C14.8409 1.5 15.4132 1.73705 15.8351 2.15901C16.2571 2.58097 16.4941 3.15326 16.4941 3.75V14.25C16.4941 14.8467 16.2571 15.419 15.8351 15.841C15.4132 16.2629 14.8409 16.5 14.2441 16.5H3.74414C3.1474 16.5 2.57511 16.2629 2.15315 15.841C1.73119 15.419 1.49414 14.8467 1.49414 14.25V3.75Z" fill="#0B1729"/>
</svg>
