<svg width="18" height="20" viewBox="0 0 18 20" fill="none" xmlns="http://www.w3.org/2000/svg">
<path d="M11.801 10.0009H3.7002M3.7002 10.0009L5.50038 11.801M3.7002 10.0009L5.50038 8.20068" stroke="#0B1729" stroke-width="1.35014" stroke-linecap="round" stroke-linejoin="round"/>
<path d="M9.10081 18.9865C7.70297 18.9442 6.86859 18.7885 6.29163 18.2106C5.59946 17.5194 5.51305 16.459 5.50225 14.5014M12.7012 19C14.6589 18.9892 15.7192 18.9028 16.4104 18.2106C17.2016 17.4203 17.2016 16.1467 17.2016 13.6013V6.40054C17.2016 3.85509 17.2016 2.58146 16.4104 1.79118C15.6202 1 14.3465 1 11.8011 1H10.901C8.35554 1 7.08191 1 6.29163 1.79118C5.59946 2.48245 5.51305 3.54275 5.50225 5.50045M1 7.75068V12.2511C1 14.3726 1 15.4329 1.65887 16.0927C2.31773 16.7525 3.37894 16.7516 5.50045 16.7516M1.65887 3.90909C2.31773 3.25022 3.37894 3.25023 5.50045 3.25023" stroke="#0B1729" stroke-width="1.35014" stroke-linecap="round"/>
</svg>
